<svg width="21" height="20" viewBox="0 0 21 20" fill="none" xmlns="http://www.w3.org/2000/svg">
<g clip-path="url(#clip0_45_549)">
<circle cx="10.4961" cy="10.0781" r="9.5" stroke="black"/>
<path d="M15.097 9.42252C15.2802 8.98364 15.5624 8.6815 15.9396 8.51936C15.524 8.37127 15.2419 8.10643 15.097 7.72754C14.9516 8.10643 14.6695 8.37126 14.2538 8.51936C14.6311 8.68151 14.9132 8.98419 15.097 9.42252Z" fill="black"/>
<path d="M6.6904 6.80435C6.87362 6.36547 7.15577 6.06334 7.53302 5.9012C7.11738 5.75311 6.83524 5.48826 6.6904 5.10938C6.54501 5.48826 6.26288 5.75309 5.84723 5.9012C6.2245 6.06335 6.50662 6.36602 6.6904 6.80435Z" fill="black"/>
<path d="M7.01747 14.2316C7.97035 14.6575 9.23893 14.8915 10.5906 14.8915C11.9424 14.8915 13.2114 14.6569 14.1643 14.2316C15.0918 13.8175 15.6021 13.2765 15.6021 12.7084C15.6021 11.9312 14.6411 11.2124 13.0855 10.8184V10.8211C13.0839 10.8362 13.0812 10.8508 13.079 10.8654C13.0758 10.8892 13.072 10.9129 13.0682 10.9367C13.0655 10.9535 13.0617 10.9702 13.0585 10.987C13.0541 11.0086 13.0498 11.0302 13.045 11.0519C13.0412 11.0686 13.0368 11.0854 13.0331 11.1027C13.0277 11.1243 13.0223 11.1454 13.0168 11.167C13.0125 11.1832 13.0077 11.1999 13.0028 11.2162C12.9963 11.2378 12.9898 11.2594 12.9828 11.281C12.9779 11.2967 12.9725 11.3124 12.9671 11.3275C12.9596 11.3502 12.9509 11.3724 12.9423 11.3951C12.9369 11.4091 12.9314 11.4237 12.926 11.4378C12.9163 11.4626 12.9055 11.4869 12.8947 11.5113C12.8898 11.5232 12.885 11.5345 12.8796 11.5464C12.8779 11.5496 12.8769 11.5529 12.8752 11.5561C13.4282 11.7977 13.7314 12.1182 13.7314 12.4669C13.7314 13.2035 12.352 13.7808 10.5912 13.7808C8.83019 13.7808 7.45152 13.2035 7.45152 12.4669C7.45152 12.1188 7.75473 11.7977 8.30765 11.5561C8.30603 11.5529 8.30495 11.5496 8.30333 11.5464C8.29792 11.5345 8.29252 11.5221 8.28765 11.5096C8.27739 11.4859 8.26712 11.4621 8.25739 11.4378C8.25144 11.4232 8.24604 11.4086 8.24063 11.394C8.23199 11.3718 8.22388 11.3497 8.21631 11.3275C8.21091 11.3118 8.20604 11.2967 8.20064 11.281C8.19361 11.2594 8.18658 11.2372 8.1801 11.2151C8.17523 11.1994 8.17091 11.1837 8.16659 11.1675C8.16064 11.1448 8.1547 11.1227 8.14929 11.1C8.14551 11.0843 8.14172 11.0691 8.13848 11.0535C8.13308 11.0297 8.12821 11.0054 8.12389 10.981C8.12118 10.967 8.11794 10.9524 8.11578 10.9383C8.11091 10.9097 8.10659 10.8805 8.10227 10.8513C8.10119 10.8416 8.09902 10.8319 8.09794 10.8221C8.09794 10.8211 8.09794 10.8194 8.0974 10.8184C6.5419 11.2118 5.58081 11.9312 5.58081 12.7084C5.58081 13.2765 6.09157 13.8175 7.01857 14.2316L7.01747 14.2316Z" fill="black"/>
<path d="M8.48238 11.4576C8.49805 11.4927 8.51481 11.5273 8.53265 11.5614C8.68507 11.8597 8.90288 12.1224 9.16827 12.3294C9.2061 12.3591 9.24502 12.3872 9.28501 12.4148C9.67147 12.6797 10.1233 12.8191 10.5914 12.8191C11.0594 12.8191 11.5113 12.6791 11.8977 12.4148C12.2156 12.1975 12.4761 11.9024 12.6506 11.5614C12.7917 11.2868 12.8749 10.9917 12.8987 10.6852C12.9041 10.6285 12.9063 10.5696 12.9063 10.5031C12.9063 10.1518 12.8231 9.79721 12.6658 9.47887L10.5914 5.28418L8.51703 9.47887C8.33165 9.85396 8.25164 10.2712 8.28516 10.6853C8.3057 10.9539 8.37218 11.2128 8.48298 11.4576L8.48238 11.4576ZM9.0499 9.74255L9.29474 9.24747C9.31906 9.19774 9.37906 9.17774 9.42878 9.20207C9.47851 9.22639 9.4985 9.28638 9.47418 9.33611L9.22934 9.83119C9.05044 10.1933 9.02395 10.6063 9.1553 10.9932C9.17313 11.0457 9.14503 11.1024 9.0926 11.1203C9.08179 11.124 9.07098 11.1257 9.06071 11.1257C9.01909 11.1257 8.98018 11.0992 8.96613 11.0576C8.81749 10.6198 8.84776 10.1528 9.05044 9.74255L9.0499 9.74255Z" fill="black"/>
<path d="M12.6864 11.8921C12.674 11.9105 12.6616 11.9289 12.6491 11.9472C12.6329 11.9705 12.6162 11.9932 12.5994 12.0159C12.5859 12.0337 12.5729 12.051 12.5594 12.0683C12.5416 12.0905 12.5232 12.1126 12.5048 12.1342C12.4908 12.151 12.4767 12.1672 12.4621 12.1834C12.4427 12.205 12.4227 12.2261 12.4021 12.2472C12.3875 12.2623 12.3729 12.2775 12.3584 12.2926C12.3367 12.3142 12.314 12.3348 12.2919 12.3553C12.2773 12.3688 12.2632 12.3823 12.2481 12.3953C12.2227 12.4175 12.1962 12.4391 12.1703 12.4602C12.1573 12.4704 12.1449 12.4812 12.1319 12.4915C12.0919 12.5223 12.0514 12.552 12.0097 12.5807C11.5898 12.8682 11.099 13.0201 10.5904 13.0201C10.0818 13.0201 9.59101 12.8682 9.17103 12.5807C9.12941 12.552 9.08887 12.5223 9.04888 12.4915C9.0359 12.4818 9.02401 12.471 9.01104 12.4607C8.98456 12.4391 8.95807 12.4175 8.93213 12.3953C8.91754 12.3823 8.90348 12.3688 8.88943 12.3558C8.86673 12.3348 8.84403 12.3142 8.82187 12.2926C8.80728 12.278 8.79268 12.2629 8.77863 12.2477C8.75809 12.2267 8.7381 12.2056 8.7181 12.1834C8.7035 12.1672 8.68999 12.151 8.67594 12.1342C8.65756 12.1126 8.63919 12.0905 8.62135 12.0678C8.60784 12.0505 8.59433 12.0332 8.58135 12.0159C8.56406 11.9932 8.54784 11.9705 8.53163 11.9472C8.5192 11.9294 8.50676 11.911 8.49433 11.8926C8.47866 11.8689 8.46353 11.8451 8.44893 11.8213C8.43758 11.8024 8.42623 11.784 8.41488 11.7645C8.40894 11.7548 8.40299 11.7451 8.39759 11.7354C7.92142 11.9407 7.65063 12.205 7.65063 12.4672C7.65063 13.0709 8.997 13.5811 10.5903 13.5811C12.1837 13.5811 13.5312 13.0709 13.5312 12.4672C13.5312 12.205 13.2604 11.9407 12.7842 11.7354C12.7788 11.7451 12.7723 11.7548 12.7669 11.7645C12.7556 11.784 12.7442 11.8029 12.7323 11.8218C12.7177 11.8456 12.7026 11.8694 12.6869 11.8926L12.6864 11.8921Z" fill="black"/>
</g>
<defs>
<clipPath id="clip0_45_549">
<rect width="21" height="20" fill="white"/>
</clipPath>
</defs>
</svg>
