<svg width="20" height="20" viewBox="0 0 20 20" fill="none" xmlns="http://www.w3.org/2000/svg">
<path d="M1.66669 7.91711C1.6667 6.98977 1.94801 6.08426 2.47346 5.32016C2.99891 4.55606 3.74378 3.96932 4.60969 3.63744C5.4756 3.30556 6.42182 3.24414 7.32336 3.46131C8.22491 3.67848 9.03937 4.16401 9.65919 4.85377C9.70284 4.90045 9.75562 4.93767 9.81425 4.96311C9.87288 4.98855 9.93611 5.00168 10 5.00168C10.0639 5.00168 10.1272 4.98855 10.1858 4.96311C10.2444 4.93767 10.2972 4.90045 10.3409 4.85377C10.9587 4.15952 11.7734 3.66991 12.6764 3.45011C13.5794 3.2303 14.5279 3.29073 15.3957 3.62334C16.2636 3.95596 17.0095 4.54498 17.5343 5.31203C18.0591 6.07907 18.3378 6.98774 18.3334 7.91711C18.3334 9.82544 17.0834 11.2504 15.8334 12.5004L11.2567 16.9279C11.1014 17.1063 10.91 17.2495 10.6951 17.3482C10.4802 17.4468 10.2467 17.4986 10.0103 17.5001C9.7738 17.5016 9.53973 17.4528 9.32359 17.3569C9.10746 17.261 8.91421 17.1201 8.75669 16.9438L4.16669 12.5004C2.91669 11.2504 1.66669 9.83377 1.66669 7.91711Z" stroke="#EAA48C" stroke-width="1.25" stroke-linecap="round" stroke-linejoin="round"/>
<path d="M2.68335 10.8337H7.91668L8.33335 10.0003L10 13.7503L11.6667 7.91699L12.9167 10.8337H17.3084" stroke="#EAA48C" stroke-width="1.25" stroke-linecap="round" stroke-linejoin="round"/>
</svg>
