<svg width="17" height="17" viewBox="0 0 17 17" fill="none" xmlns="http://www.w3.org/2000/svg">
<rect x="0.5" y="0.5" width="16" height="16" rx="8" stroke="black"/>
<path d="M11.9331 8.3291V8.98135C11.9331 9.74089 11.316 10.3579 10.5565 10.3579H9.53347C9.15241 10.3579 8.84346 10.6669 8.84346 11.0479V11.8718C9.29145 12.0169 9.61586 12.4374 9.61586 12.9326C9.61586 13.548 9.11551 14.0483 8.50019 14.0483C7.88487 14.0483 7.38452 13.5479 7.38452 12.9326C7.38452 12.4374 7.70892 12.0169 8.15692 11.8718V11.0479C8.15692 10.6669 7.84796 10.3579 7.46691 10.3579H6.4439C5.68436 10.3579 5.06732 9.74086 5.06732 8.98135V8.3291C4.61933 8.18406 4.29492 7.76353 4.29492 7.26833C4.29492 6.65298 4.79527 6.15266 5.41059 6.15266C6.02592 6.15266 6.52626 6.65301 6.52626 7.26833C6.52626 7.76353 6.20186 8.18406 5.75386 8.3291V8.98135C5.75386 9.36241 6.06283 9.67136 6.44387 9.67136H7.46774C7.71921 9.67136 7.95436 9.74002 8.15775 9.85846V7.12761C7.70976 6.98257 7.38535 6.56204 7.38535 6.06684C7.38535 5.45149 7.8857 4.95117 8.50102 4.95117C9.11638 4.95117 9.61669 5.45152 9.61669 6.06684C9.61669 6.56204 9.29229 6.98257 8.84429 7.12761V9.85846C9.04684 9.74002 9.28199 9.67136 9.53345 9.67136H10.5573C10.9375 9.67136 11.2465 9.3624 11.2465 8.98135V8.3291C10.7985 8.18406 10.4741 7.76353 10.4741 7.26833C10.4741 6.65298 10.9744 6.15266 11.5897 6.15266C12.2051 6.15266 12.7054 6.65301 12.7054 7.26833C12.7054 7.76353 12.381 8.18406 11.9331 8.3291Z" fill="black"/>
</svg>
