<svg width="20" height="18" viewBox="0 0 20 18" fill="none" xmlns="http://www.w3.org/2000/svg">
<g clip-path="url(#clip0_45_526)">
<path d="M5.25754 10.5537L5.24973 10.5566C5.04335 10.6327 4.831 10.5795 4.70285 10.4766C4.64069 10.4266 4.61698 10.3794 4.61008 10.3545C4.60575 10.3388 4.60334 10.319 4.62473 10.2812L4.62668 10.2773C4.65625 10.224 4.73602 10.149 4.87961 10.1104L4.88058 10.1094C5.48803 9.94435 6.46102 9.79024 7.48508 9.70117C7.59399 9.69176 7.69876 9.67853 7.79953 9.66406L5.25754 10.5537ZM10.0896 8.55566C10.2017 8.61517 10.3176 8.65027 10.4245 8.66797C10.4854 8.67804 10.5464 8.6819 10.6062 8.68359L9.44894 9.08691C9.61543 8.98099 9.73328 8.88734 9.80344 8.82227L10.0896 8.55566ZM11.7878 8.10742L11.8318 8.1543C11.8587 8.18298 11.8876 8.20532 11.9157 8.22461L11.7312 8.28906L11.7546 8.18848C11.7618 8.15705 11.7678 8.12145 11.7751 8.08398L11.7878 8.10742ZM11.6511 8.16211L11.5945 8.06738L11.7263 7.99512L11.7536 8.04492C11.7268 8.09425 11.6908 8.13341 11.6511 8.16211Z" fill="black" stroke="black"/>
<mask id="path-2-inside-1_45_526" fill="white">
<path d="M11.2647 11.532C11.025 11.3673 11.0605 10.807 11.1397 10.4923C11.1607 10.4078 11.0931 10.3257 10.9875 10.3089C10.8805 10.2914 10.7798 10.3463 10.7584 10.4304C10.7327 10.532 10.5216 11.4319 11.0118 11.7683C11.3362 11.9907 11.3649 12.1452 11.3654 12.1445C11.3742 12.3489 11.755 12.3438 11.7545 12.139C11.7535 12.0931 11.7248 11.8474 11.2647 11.5316V11.532Z"/>
</mask>
<path d="M11.2647 11.532C11.025 11.3673 11.0605 10.807 11.1397 10.4923C11.1607 10.4078 11.0931 10.3257 10.9875 10.3089C10.8805 10.2914 10.7798 10.3463 10.7584 10.4304C10.7327 10.532 10.5216 11.4319 11.0118 11.7683C11.3362 11.9907 11.3649 12.1452 11.3654 12.1445C11.3742 12.3489 11.755 12.3438 11.7545 12.139C11.7535 12.0931 11.7248 11.8474 11.2647 11.5316V11.532Z" fill="black"/>
<path d="M11.2647 11.532L10.6986 12.3563L12.2647 13.432V11.532H11.2647ZM11.1397 10.4923L12.1094 10.7366L12.1104 10.7326L11.1397 10.4923ZM10.9875 10.3089L10.8259 11.2958L10.8309 11.2966L10.9875 10.3089ZM10.7584 10.4304L9.78928 10.1839L9.78913 10.1845L10.7584 10.4304ZM11.0118 11.7683L10.446 12.5929L10.4465 12.5932L11.0118 11.7683ZM11.3654 12.1445L12.3645 12.1017L12.2264 8.87803L10.5172 11.6147L11.3654 12.1445ZM11.7545 12.139L12.7545 12.1366L12.7545 12.1272L12.7543 12.1178L11.7545 12.139ZM11.2647 11.5316L11.8306 10.7071L10.2647 9.63237V11.5316H11.2647ZM11.2647 11.532L11.8309 10.7077C12.0013 10.8247 12.0598 10.967 12.0733 11.0042C12.088 11.0449 12.0833 11.0533 12.081 11.0125C12.0791 10.9773 12.0802 10.9282 12.0863 10.8717C12.0924 10.8156 12.1017 10.7675 12.1094 10.7366L11.1397 10.4923L10.17 10.248C10.1099 10.4869 10.0664 10.8076 10.0842 11.1242C10.0931 11.2835 10.1195 11.4825 10.1925 11.6844C10.2643 11.8829 10.4083 12.1569 10.6986 12.3563L11.2647 11.532ZM11.1397 10.4923L12.1104 10.7326C12.3198 9.8866 11.6122 9.39548 11.1441 9.32126L10.9875 10.3089L10.8309 11.2966C10.6706 11.2712 10.4852 11.1873 10.3408 11.0129C10.1899 10.8307 10.0947 10.5524 10.169 10.252L11.1397 10.4923ZM10.9875 10.3089L11.1491 9.32207C10.6957 9.24782 9.97604 9.44961 9.78928 10.1839L10.7584 10.4304L11.7276 10.6769C11.6562 10.9577 11.4688 11.1297 11.3125 11.2133C11.1541 11.2981 10.9826 11.3214 10.8259 11.2958L10.9875 10.3089ZM10.7584 10.4304L9.78913 10.1845C9.76767 10.2691 9.68403 10.6196 9.6918 11.0302C9.69857 11.3886 9.78257 12.1376 10.446 12.5929L11.0118 11.7683L11.5776 10.9438C11.665 11.0038 11.6962 11.0752 11.7009 11.0881C11.7027 11.0929 11.6928 11.0646 11.6914 10.9924C11.6902 10.9249 11.6969 10.8512 11.7069 10.7849C11.7117 10.7532 11.7168 10.7265 11.7208 10.707C11.7228 10.6974 11.7246 10.6897 11.7258 10.6844C11.727 10.6791 11.7277 10.6763 11.7277 10.6763L10.7584 10.4304ZM11.0118 11.7683L10.4465 12.5932C10.5317 12.6515 10.5302 12.6683 10.4987 12.6245C10.4827 12.6024 10.461 12.5674 10.4397 12.5187C10.429 12.4944 10.4193 12.4687 10.4108 12.4418C10.4064 12.4282 10.4032 12.4167 10.401 12.4091C10.3978 12.3972 10.4023 12.4136 10.4032 12.417C10.4041 12.42 10.4059 12.4262 10.4082 12.434C10.4101 12.4402 10.4151 12.4566 10.4224 12.4774C10.4229 12.4788 10.4483 12.5554 10.4978 12.6417C10.5135 12.6682 10.5553 12.7307 10.5821 12.766C10.6255 12.8172 10.7541 12.9359 10.8431 12.9972C10.9995 13.0751 11.4051 13.1437 11.6409 13.1058C11.8444 13.0223 12.1273 12.7922 12.2136 12.6742L11.3654 12.1445L10.5172 11.6147C10.6035 11.4967 10.8865 11.2666 11.09 11.1831C11.3257 11.1452 11.7313 11.2138 11.8877 11.2917C11.9767 11.353 12.1053 11.4717 12.1487 11.5229C12.1755 11.5582 12.2173 11.6207 12.233 11.6472C12.2825 11.7335 12.3078 11.81 12.3083 11.8114C12.3156 11.8321 12.3206 11.8484 12.3224 11.8545C12.3248 11.8622 12.3265 11.8683 12.3273 11.8712C12.3281 11.874 12.3324 11.8895 12.3288 11.8765C12.3261 11.8666 12.3218 11.8517 12.316 11.8335C12.3045 11.7974 12.29 11.758 12.2715 11.7158C12.2345 11.6314 12.1853 11.5441 12.1215 11.4556C11.9944 11.2791 11.8164 11.1074 11.5772 10.9435L11.0118 11.7683ZM11.3654 12.1445L10.3663 12.1872C10.3836 12.5913 10.6019 12.9051 10.8682 13.086C11.1077 13.2485 11.3678 13.298 11.5771 13.2951C11.7859 13.2922 12.0473 13.2359 12.2843 13.063C12.5498 12.8694 12.7555 12.5426 12.7545 12.1366L11.7545 12.139L10.7545 12.1414C10.7538 11.8378 10.912 11.5884 11.106 11.447C11.2715 11.3263 11.4372 11.2968 11.5498 11.2953C11.6629 11.2937 11.8261 11.3189 11.9917 11.4313C12.1842 11.562 12.3516 11.7998 12.3645 12.1017L11.3654 12.1445ZM11.7545 12.139L12.7543 12.1178C12.745 11.6775 12.4904 11.1599 11.8306 10.7071L11.2647 11.5316L10.6989 12.3561C10.8384 12.4518 10.8508 12.4947 10.8272 12.4558C10.8003 12.4115 10.758 12.3124 10.7547 12.1602L11.7545 12.139ZM11.2647 11.5316H10.2647V11.532H11.2647H12.2647V11.5316H11.2647Z" fill="black" mask="url(#path-2-inside-1_45_526)"/>
<circle cx="10.043" cy="9.07227" r="8.5" stroke="black"/>
</g>
<defs>
<clipPath id="clip0_45_526">
<rect width="20" height="18" fill="white"/>
</clipPath>
</defs>
</svg>
