<svg width="18" height="18" viewBox="0 0 18 18" fill="none" xmlns="http://www.w3.org/2000/svg">
<g clip-path="url(#clip0_120_1373)">
<path d="M1.5 9H3.36C3.68777 8.9993 4.00676 9.10598 4.26816 9.30373C4.52956 9.50147 4.719 9.7794 4.8075 10.095L6.57 16.365C6.58136 16.4039 6.60504 16.4382 6.6375 16.4625C6.66996 16.4868 6.70943 16.5 6.75 16.5C6.79057 16.5 6.83004 16.4868 6.8625 16.4625C6.89496 16.4382 6.91864 16.4039 6.93 16.365L11.07 1.635C11.0814 1.59605 11.105 1.56184 11.1375 1.5375C11.17 1.51316 11.2094 1.5 11.25 1.5C11.2906 1.5 11.33 1.51316 11.3625 1.5375C11.395 1.56184 11.4186 1.59605 11.43 1.635L13.1925 7.905C13.2807 8.21937 13.469 8.49639 13.7289 8.69401C13.9887 8.89163 14.306 8.99907 14.6325 9H16.5" stroke="#1C3A27" stroke-width="1.125" stroke-linecap="round" stroke-linejoin="round"/>
</g>
<defs>
<clipPath id="clip0_120_1373">
<rect width="18" height="18" fill="white" transform="matrix(-1 0 0 1 18 0)"/>
</clipPath>
</defs>
</svg>
