<svg width="19" height="19" viewBox="0 0 19 19" fill="none" xmlns="http://www.w3.org/2000/svg">
<path fill-rule="evenodd" clip-rule="evenodd" d="M5.54909 6.71191H13.1189C13.347 6.71191 13.554 6.79611 13.7041 6.93178C13.8541 7.06745 13.9473 7.25497 13.9473 7.46086V11.813C13.9473 12.0193 13.8541 12.2064 13.7041 12.3421C13.554 12.4778 13.3466 12.5619 13.1189 12.5619L5.54909 12.5623C5.32095 12.5623 5.11395 12.4781 4.96389 12.3425C4.81383 12.2068 4.7207 12.0193 4.7207 11.8134V7.46123C4.7207 7.25497 4.81383 7.06782 4.96389 6.93215C5.11395 6.79611 5.32095 6.71191 5.54909 6.71191ZM13.3979 12.105L10.4365 9.87243L9.9953 10.2048C9.8123 10.3427 9.57398 10.4125 9.33771 10.4136C9.10103 10.4148 8.86313 10.3467 8.68134 10.2096L8.234 9.87243L5.2714 12.106C5.34623 12.1641 5.44342 12.1998 5.54916 12.1998H13.119C13.2251 12.1994 13.3226 12.1638 13.3979 12.105ZM5.12214 11.7483L7.92213 9.63711L5.12214 7.52589V11.7483ZM5.27139 7.16822L8.3584 9.49564L8.36409 9.49969L8.93669 9.93133C9.04404 10.0122 9.18923 10.0523 9.33603 10.0519C9.48366 10.0512 9.63006 10.0096 9.73986 9.92692L10.3064 9.49968L10.3116 9.49563L13.3979 7.16896C13.3227 7.11014 13.2251 7.07447 13.1189 7.07447L5.54915 7.07484C5.44342 7.07484 5.34623 7.11013 5.27139 7.16822ZM13.5463 7.52781L10.7484 9.63714L13.5459 11.7465V7.52781H13.5463Z" fill="black"/>
<circle cx="9.5" cy="9.5" r="9" stroke="black"/>
</svg>
