<svg width="19" height="18" viewBox="0 0 19 18" fill="none" xmlns="http://www.w3.org/2000/svg">
<g clip-path="url(#clip0_45_532)">
<path d="M8.00781 0.955078C9.65662 0.627132 11.3658 0.796122 12.9189 1.43945C14.4719 2.08277 15.7995 3.17172 16.7334 4.56934C17.6674 5.96715 18.166 7.61085 18.166 9.29199L18.1553 9.71289C18.0493 11.8132 17.1679 13.8057 15.6738 15.2998C14.0802 16.8934 11.9197 17.7898 9.66602 17.792L9.35156 17.7861C7.78058 17.728 6.25389 17.235 4.94336 16.3594C3.54575 15.4254 2.45679 14.0979 1.81348 12.5449C1.17015 10.9918 1.00116 9.28259 1.3291 7.63379C1.65708 5.98495 2.46653 4.47 3.65527 3.28125C4.84402 2.0925 6.35897 1.28305 8.00781 0.955078ZM9.66602 8.32715C9.69994 8.32715 9.73285 8.34027 9.75684 8.36426C9.78073 8.38823 9.79395 8.42122 9.79395 8.45508V14.3086C9.79348 14.3441 9.77903 14.3782 9.75391 14.4033C9.73036 14.4268 9.69907 14.4394 9.66602 14.4414C9.63296 14.4394 9.60167 14.4268 9.57812 14.4033C9.56567 14.3909 9.5556 14.3763 9.54883 14.3604L9.53809 14.3086V8.45508C9.53809 8.42122 9.5513 8.38823 9.5752 8.36426C9.59918 8.34027 9.63209 8.32715 9.66602 8.32715ZM9.55957 4.57031C9.66545 4.54927 9.77525 4.55933 9.875 4.60059C9.97486 4.64195 10.0601 4.71286 10.1201 4.80273C10.18 4.89244 10.2128 4.9976 10.2129 5.10547C10.2129 5.2503 10.1551 5.38972 10.0527 5.49219C9.95024 5.59468 9.81096 5.65234 9.66602 5.65234C9.55794 5.65234 9.45217 5.62059 9.3623 5.56055C9.27252 5.50056 9.20251 5.41516 9.16113 5.31543C9.11977 5.21557 9.1088 5.10504 9.12988 4.99902C9.15098 4.89323 9.20307 4.79605 9.2793 4.71973C9.35573 4.6433 9.45356 4.5914 9.55957 4.57031ZM17.9102 9.29102C17.9077 7.10555 17.0385 5.01021 15.4932 3.46484C13.9478 1.91948 11.8525 1.05033 9.66699 1.04785H9.66602C8.03547 1.04785 6.44169 1.53162 5.08594 2.4375C3.73034 3.34329 2.67381 4.6305 2.0498 6.13672C1.42582 7.64315 1.26197 9.30118 1.58008 10.9004C1.89818 12.4996 2.68395 13.9681 3.83691 15.1211C4.98988 16.2741 6.45841 17.0598 8.05762 17.3779C9.65683 17.696 11.3149 17.5322 12.8213 16.9082C14.3275 16.2842 15.6147 15.2277 16.5205 13.8721C17.4264 12.5163 17.9102 10.9225 17.9102 9.29199V9.29102Z" fill="white" stroke="black"/>
</g>
<defs>
<clipPath id="clip0_45_532">
<rect width="19" height="18" fill="white"/>
</clipPath>
</defs>
</svg>
