<svg width="34" height="36" viewBox="0 0 34 36" fill="none" xmlns="http://www.w3.org/2000/svg">
<path opacity="0.987" fill-rule="evenodd" clip-rule="evenodd" d="M14.995 0.156287C16.8193 -0.0520958 17.8987 -0.0520958 19.8589 0.156287C23.3286 0.681348 26.5451 2.32112 29.0432 4.83847C27.3551 6.46987 25.6892 8.12509 24.0459 9.80365C20.8989 7.07666 17.3862 6.44722 13.5079 7.91534C10.6628 9.25311 8.6817 11.421 7.56449 14.4189C5.7388 13.0293 3.9369 11.6073 2.15959 10.1535C2.03607 10.0871 1.895 10.0627 1.75699 10.0841C4.58022 4.51861 8.99204 1.20849 14.9925 0.153715" fill="#F44336"/>
<path opacity="0.997" fill-rule="evenodd" clip-rule="evenodd" d="M1.75194 10.0854C1.89453 10.0631 2.02957 10.0862 2.15706 10.1548C3.93437 11.6086 5.73627 13.0306 7.56196 14.4202C7.27467 15.5884 7.09357 16.7811 7.02097 17.9833C7.08304 19.1462 7.26337 20.2875 7.56196 21.4075L1.88782 26.0254C-0.583135 20.7463 -0.628428 15.433 1.75194 10.0854Z" fill="#FFC107"/>
<path opacity="0.999" fill-rule="evenodd" clip-rule="evenodd" d="M28.7739 31.6161C27.0072 30.0231 25.1576 28.5288 23.2332 27.1397C25.1623 25.7471 26.3332 23.8365 26.7458 21.4079H17.2923V14.6959C22.7442 14.6496 28.1935 14.6968 33.6404 14.8374C34.6737 20.5744 33.4802 25.7471 30.0597 30.3555C29.653 30.7976 29.2222 31.2183 28.7739 31.6161Z" fill="#448AFF"/>
<path opacity="0.993" fill-rule="evenodd" clip-rule="evenodd" d="M7.56197 21.4072C9.6253 26.6502 13.4081 29.0977 18.9103 28.7495C20.4548 28.5667 21.9357 28.015 23.2332 27.139C25.1589 28.5317 27.0059 30.0238 28.774 31.6154C25.9725 34.1892 22.4006 35.7164 18.641 35.9477C17.7869 36.0175 16.9286 36.0175 16.0744 35.9477C9.66975 35.1759 4.94088 31.8675 1.88783 26.0225L7.56197 21.4072Z" fill="#43A047"/>
</svg>
