<svg width="20" height="20" viewBox="0 0 20 20" fill="none" xmlns="http://www.w3.org/2000/svg">
<path d="M6.62695 9.83301C7.35781 9.83301 7.98222 10.2718 8.08887 10.8447C8.165 11.2104 8.50033 12.4414 10.0078 12.4414C11.2715 12.4413 11.7286 11.5517 11.8809 10.7959C12.0028 10.2352 12.6116 9.83301 13.3271 9.83301H16.1289V10.4424H13.3428C12.9926 10.4424 12.7025 10.6381 12.6416 10.9062C12.337 12.2956 11.4084 13.0517 10.0078 13.0518C8.31761 13.0518 7.51027 11.9542 7.34277 10.918C7.29709 10.6376 6.99273 10.4424 6.64258 10.4424H3.87109V9.83301H6.62695Z" fill="black"/>
<path d="M6.62695 9.83301C7.35781 9.83301 7.98222 10.2718 8.08887 10.8447C8.165 11.2104 8.50033 12.4414 10.0078 12.4414C11.2715 12.4413 11.7286 11.5517 11.8809 10.7959C12.0028 10.2352 12.6116 9.83301 13.3271 9.83301H16.1289V10.4424H13.3428C12.9926 10.4424 12.7025 10.6381 12.6416 10.9062C12.337 12.2956 11.4084 13.0517 10.0078 13.0518C8.31761 13.0518 7.51027 11.9542 7.34277 10.918C7.29709 10.6376 6.99273 10.4424 6.64258 10.4424H3.87109V9.83301H6.62695Z" stroke="black"/>
<path d="M11.3932 4.14062C11.3476 4.23806 11.3168 4.34751 11.2711 4.48145C11.2407 4.61551 11.1957 4.77417 11.1501 4.93262C11.1196 5.10321 11.0585 5.27381 11.028 5.46875C10.9975 5.65161 10.952 5.85917 10.9215 6.06641C10.8911 6.27363 10.8602 6.49348 10.8297 6.71289C10.8145 6.93216 10.7844 7.15183 10.7692 7.37109C10.7692 7.59039 10.7381 7.81 10.7077 8.0293C10.6925 8.24852 10.693 8.46775 10.693 8.6748C10.693 8.88204 10.7077 9.07741 10.7077 9.27246C10.7077 9.4553 10.7237 9.63841 10.7389 9.79688C10.739 9.88212 10.7536 9.96749 10.7536 10.0527C11.0733 10.2477 11.2867 10.5523 11.2868 10.8936C11.2868 11.4665 10.7081 11.9424 9.9772 11.9424C9.26153 11.9424 8.66763 11.4787 8.66763 10.8936C8.66772 10.5401 8.89658 10.2233 9.24673 10.0283C9.26195 9.94306 9.27644 9.84549 9.29166 9.74805C9.32209 9.57752 9.35248 9.38238 9.3981 9.1875C9.44378 8.99245 9.49012 8.79658 9.5358 8.57715C9.58147 8.35787 9.64192 8.13823 9.70279 7.91895C9.76367 7.69965 9.84015 7.46831 9.90103 7.24902C9.97714 7.02967 10.0534 6.81017 10.1295 6.59082C10.2056 6.37156 10.2814 6.16411 10.3727 5.95703C10.4641 5.74979 10.5401 5.55395 10.6315 5.37109C10.7228 5.18828 10.8151 5.01781 10.8913 4.85938C10.9826 4.701 11.0583 4.55445 11.1344 4.43262C11.2105 4.31081 11.2718 4.2015 11.3327 4.11621C11.4393 3.94554 11.5153 3.84766 11.5153 3.84766C11.5153 3.84766 11.4694 3.94558 11.3932 4.14062Z" fill="black"/>
<path d="M11.3932 4.14062C11.3476 4.23806 11.3168 4.34751 11.2711 4.48145C11.2407 4.61551 11.1957 4.77417 11.1501 4.93262C11.1196 5.10321 11.0585 5.27381 11.028 5.46875C10.9975 5.65161 10.952 5.85917 10.9215 6.06641C10.8911 6.27363 10.8602 6.49348 10.8297 6.71289C10.8145 6.93216 10.7844 7.15183 10.7692 7.37109C10.7692 7.59039 10.7381 7.81 10.7077 8.0293C10.6925 8.24852 10.693 8.46775 10.693 8.6748C10.693 8.88204 10.7077 9.07741 10.7077 9.27246C10.7077 9.4553 10.7237 9.63841 10.7389 9.79688C10.739 9.88212 10.7536 9.96749 10.7536 10.0527C11.0733 10.2477 11.2867 10.5523 11.2868 10.8936C11.2868 11.4665 10.7081 11.9424 9.9772 11.9424C9.26153 11.9424 8.66763 11.4787 8.66763 10.8936C8.66772 10.5401 8.89658 10.2233 9.24673 10.0283C9.26195 9.94306 9.27644 9.84549 9.29166 9.74805C9.32209 9.57752 9.35248 9.38238 9.3981 9.1875C9.44378 8.99245 9.49012 8.79658 9.5358 8.57715C9.58147 8.35787 9.64192 8.13823 9.70279 7.91895C9.76367 7.69965 9.84015 7.46831 9.90103 7.24902C9.97714 7.02967 10.0534 6.81017 10.1295 6.59082C10.2056 6.37156 10.2814 6.16411 10.3727 5.95703C10.4641 5.74979 10.5401 5.55395 10.6315 5.37109C10.7228 5.18828 10.8151 5.01781 10.8913 4.85938C10.9826 4.701 11.0583 4.55445 11.1344 4.43262C11.2105 4.31081 11.2718 4.2015 11.3327 4.11621C11.4393 3.94554 11.5153 3.84766 11.5153 3.84766C11.5153 3.84766 11.4694 3.94558 11.3932 4.14062Z" stroke="black"/>
<path d="M11.987 7.96777C12.2896 7.96777 12.5356 8.16405 12.5358 8.40625C12.5358 8.64862 12.2897 8.8457 11.987 8.8457C11.6844 8.84556 11.4391 8.64854 11.4391 8.40625C11.4394 8.16414 11.6846 7.96791 11.987 7.96777Z" fill="black"/>
<path d="M11.987 7.96777C12.2896 7.96777 12.5356 8.16405 12.5358 8.40625C12.5358 8.64862 12.2897 8.8457 11.987 8.8457C11.6844 8.84556 11.4391 8.64854 11.4391 8.40625C11.4394 8.16414 11.6846 7.96791 11.987 7.96777Z" stroke="black"/>
<path d="M11.9265 6.34668C12.1954 6.3467 12.4135 6.5211 12.4138 6.73633C12.4138 6.95176 12.1955 7.12694 11.9265 7.12695C11.6573 7.12695 11.4391 6.95177 11.4391 6.73633C11.4394 6.52109 11.6575 6.34668 11.9265 6.34668Z" fill="black"/>
<path d="M11.9265 6.34668C12.1954 6.3467 12.4135 6.5211 12.4138 6.73633C12.4138 6.95176 12.1955 7.12694 11.9265 7.12695C11.6573 7.12695 11.4391 6.95177 11.4391 6.73633C11.4394 6.52109 11.6575 6.34668 11.9265 6.34668Z" stroke="black"/>
<path d="M8.8504 6.82227C9.11931 6.82228 9.33741 6.99669 9.33771 7.21191C9.33771 7.42735 9.1195 7.60252 8.8504 7.60254C8.58129 7.60254 8.3631 7.42736 8.3631 7.21191C8.3634 6.99668 8.58148 6.82227 8.8504 6.82227Z" fill="black"/>
<path d="M8.8504 6.82227C9.11931 6.82228 9.33741 6.99669 9.33771 7.21191C9.33771 7.42735 9.1195 7.60252 8.8504 7.60254C8.58129 7.60254 8.3631 7.42736 8.3631 7.21191C8.3634 6.99668 8.58148 6.82227 8.8504 6.82227Z" stroke="black"/>
<path d="M12.1094 4.89648C12.3195 4.89656 12.4902 5.03294 12.4902 5.20117C12.4902 5.36944 12.3195 5.50578 12.1094 5.50586C11.8991 5.50586 11.7285 5.36949 11.7285 5.20117C11.7286 5.03289 11.8992 4.89648 12.1094 4.89648Z" fill="black"/>
<path d="M12.1094 4.89648C12.3195 4.89656 12.4902 5.03294 12.4902 5.20117C12.4902 5.36944 12.3195 5.50578 12.1094 5.50586C11.8991 5.50586 11.7285 5.36949 11.7285 5.20117C11.7286 5.03289 11.8992 4.89648 12.1094 4.89648Z" stroke="black"/>
<path d="M9.59689 5.35938C9.80702 5.35945 9.9777 5.49583 9.97775 5.66406C9.97775 5.83233 9.80705 5.96867 9.59689 5.96875C9.38665 5.96875 9.21603 5.83238 9.21603 5.66406C9.21608 5.49578 9.38668 5.35938 9.59689 5.35938Z" fill="black"/>
<path d="M9.59689 5.35938C9.80702 5.35945 9.9777 5.49583 9.97775 5.66406C9.97775 5.83233 9.80705 5.96867 9.59689 5.96875C9.38665 5.96875 9.21603 5.83238 9.21603 5.66406C9.21608 5.49578 9.38668 5.35938 9.59689 5.35938Z" stroke="black"/>
<path d="M8.11926 8.56543C8.42185 8.56543 8.66783 8.76171 8.66809 9.00391C8.66809 9.24628 8.42201 9.44336 8.11926 9.44336C7.81666 9.44322 7.57141 9.24619 7.57141 9.00391C7.57167 8.76179 7.81682 8.56557 8.11926 8.56543Z" fill="black"/>
<path d="M8.11926 8.56543C8.42185 8.56543 8.66783 8.76171 8.66809 9.00391C8.66809 9.24628 8.42201 9.44336 8.11926 9.44336C7.81666 9.44322 7.57141 9.24619 7.57141 9.00391C7.57167 8.76179 7.81682 8.56557 8.11926 8.56543Z" stroke="black"/>
<circle cx="10" cy="10" r="9.5" stroke="black"/>
</svg>
