<svg width="18" height="18" viewBox="0 0 18 18" fill="none" xmlns="http://www.w3.org/2000/svg">
<g clip-path="url(#clip0_120_1390)">
<path d="M9 13.5V3.75" stroke="#1C3A27" stroke-width="1.125" stroke-linecap="round" stroke-linejoin="round"/>
<path d="M6.75 9.75C7.3989 9.56032 7.96887 9.16547 8.3745 8.62463C8.78013 8.08378 8.99959 7.42606 9 6.75C9.00041 7.42606 9.21987 8.08378 9.6255 8.62463C10.0311 9.16547 10.6011 9.56032 11.25 9.75" stroke="#1C3A27" stroke-width="1.125" stroke-linecap="round" stroke-linejoin="round"/>
<path d="M4.8015 4.8751C4.62892 4.57622 4.52741 4.24164 4.50482 3.89724C4.48224 3.55285 4.53918 3.20788 4.67125 2.88902C4.80332 2.57016 5.00697 2.28595 5.26645 2.05838C5.52593 1.83082 5.83428 1.666 6.16765 1.57667C6.50102 1.48734 6.85047 1.4759 7.18897 1.54324C7.52747 1.61057 7.84594 1.75487 8.11975 1.96498C8.39356 2.17509 8.61536 2.44537 8.768 2.75492C8.92063 3.06446 9.00002 3.40497 9 3.7501C8.99998 3.40497 9.07937 3.06446 9.232 2.75492C9.38464 2.44537 9.60644 2.17509 9.88025 1.96498C10.1541 1.75487 10.4725 1.61057 10.811 1.54324C11.1495 1.4759 11.499 1.48734 11.8324 1.57667C12.1657 1.666 12.4741 1.83082 12.7336 2.05838C12.993 2.28595 13.1967 2.57016 13.3288 2.88902C13.4608 3.20788 13.5178 3.55285 13.4952 3.89724C13.4726 4.24164 13.3711 4.57622 13.1985 4.8751" stroke="#1C3A27" stroke-width="1.125" stroke-linecap="round" stroke-linejoin="round"/>
<path d="M4.50226 3.84375C4.06141 3.9571 3.65213 4.16929 3.30543 4.46423C2.95873 4.75918 2.68369 5.12916 2.50114 5.54614C2.31859 5.96312 2.23333 6.41617 2.2518 6.87098C2.27027 7.3258 2.392 7.77045 2.60776 8.17125" stroke="#1C3A27" stroke-width="1.125" stroke-linecap="round" stroke-linejoin="round"/>
<path d="M4.5 13.4999C3.83962 13.4998 3.1977 13.2819 2.6738 12.8799C2.14989 12.4779 1.77328 11.9142 1.60236 11.2763C1.43144 10.6384 1.47576 9.962 1.72846 9.35188C1.98116 8.74176 2.42811 8.23207 3 7.90186" stroke="#1C3A27" stroke-width="1.125" stroke-linecap="round" stroke-linejoin="round"/>
<path d="M3.02475 13.1123C2.97219 13.519 3.00356 13.9321 3.11692 14.3262C3.23028 14.7203 3.42322 15.0869 3.68384 15.4035C3.94446 15.7201 4.26721 15.9799 4.63217 16.1669C4.99712 16.3538 5.39653 16.464 5.80573 16.4906C6.21493 16.5171 6.62523 16.4595 7.01129 16.3213C7.39735 16.183 7.75097 15.9671 8.05032 15.6869C8.34967 15.4066 8.58838 15.068 8.75172 14.6919C8.91507 14.3157 8.99956 13.9101 9 13.5001C9.00044 13.9101 9.08494 14.3157 9.24828 14.6919C9.41162 15.068 9.65033 15.4066 9.94968 15.6869C10.249 15.9671 10.6027 16.183 10.9887 16.3213C11.3748 16.4595 11.7851 16.5171 12.1943 16.4906C12.6035 16.464 13.0029 16.3538 13.3678 16.1669C13.7328 15.9799 14.0555 15.7201 14.3162 15.4035C14.5768 15.0869 14.7697 14.7203 14.8831 14.3262C14.9964 13.9321 15.0278 13.519 14.9753 13.1123" stroke="#1C3A27" stroke-width="1.125" stroke-linecap="round" stroke-linejoin="round"/>
<path d="M13.5 13.4999C14.1604 13.4998 14.8023 13.2819 15.3262 12.8799C15.8501 12.4779 16.2267 11.9142 16.3976 11.2763C16.5686 10.6384 16.5242 9.962 16.2715 9.35188C16.0188 8.74176 15.5719 8.23207 15 7.90186" stroke="#1C3A27" stroke-width="1.125" stroke-linecap="round" stroke-linejoin="round"/>
<path d="M13.4978 3.84375C13.9386 3.9571 14.3479 4.16929 14.6946 4.46423C15.0413 4.75918 15.3163 5.12916 15.4989 5.54614C15.6814 5.96312 15.7667 6.41617 15.7482 6.87098C15.7297 7.3258 15.608 7.77045 15.3923 8.17125" stroke="#1C3A27" stroke-width="1.125" stroke-linecap="round" stroke-linejoin="round"/>
</g>
<defs>
<clipPath id="clip0_120_1390">
<rect width="18" height="18" fill="white" transform="matrix(-1 0 0 1 18 0)"/>
</clipPath>
</defs>
</svg>
