<svg width="50" height="50" viewBox="0 0 50 50" fill="none" xmlns="http://www.w3.org/2000/svg">
<g clip-path="url(#clip0_157_973)">
<path d="M25 4.16675C13.5125 4.16675 4.16667 13.5126 4.16667 25.0001V33.6313C4.16667 35.7647 6.03542 37.5001 8.33334 37.5001H10.4167C10.9692 37.5001 11.4991 37.2806 11.8898 36.8899C12.2805 36.4992 12.5 35.9693 12.5 35.4167V24.7022C12.5 24.1496 12.2805 23.6197 11.8898 23.229C11.4991 22.8383 10.9692 22.6188 10.4167 22.6188H8.52501C9.68334 14.5563 16.6208 8.33342 25 8.33342C33.3792 8.33342 40.3167 14.5563 41.475 22.6188H39.5833C39.0308 22.6188 38.5009 22.8383 38.1102 23.229C37.7195 23.6197 37.5 24.1496 37.5 24.7022V37.5001C37.5 39.798 35.6313 41.6668 33.3333 41.6668H29.1667V39.5834H20.8333V45.8334H33.3333C37.9292 45.8334 41.6667 42.0959 41.6667 37.5001C43.9646 37.5001 45.8333 35.7647 45.8333 33.6313V25.0001C45.8333 13.5126 36.4875 4.16675 25 4.16675Z" fill="white"/>
</g>
<defs>
<clipPath id="clip0_157_973">
<rect width="50" height="50" fill="white"/>
</clipPath>
</defs>
</svg>
