<svg width="14" height="14" viewBox="0 0 14 14" fill="none" xmlns="http://www.w3.org/2000/svg">
<path d="M6.71374 3.26964C4.809 3.26964 3.27264 4.80601 3.27264 6.71074C3.27264 8.61548 4.809 10.1518 6.71374 10.1518C8.61847 10.1518 10.1548 8.61548 10.1548 6.71074C10.1548 4.80601 8.61847 3.26964 6.71374 3.26964ZM6.71374 8.94791C5.48285 8.94791 4.47657 7.94463 4.47657 6.71074C4.47657 5.47686 5.47985 4.47358 6.71374 4.47358C7.94762 4.47358 8.9509 5.47686 8.9509 6.71074C8.9509 7.94463 7.94463 8.94791 6.71374 8.94791ZM11.0982 3.12888C11.0982 3.57512 10.7388 3.93151 10.2956 3.93151C9.84936 3.93151 9.49297 3.57212 9.49297 3.12888C9.49297 2.68564 9.85236 2.32626 10.2956 2.32626C10.7388 2.32626 11.0982 2.68564 11.0982 3.12888ZM13.3773 3.94349C13.3264 2.86833 13.0808 1.91596 12.2932 1.13131C11.5085 0.346655 10.5561 0.101077 9.48099 0.0471691C8.37289 -0.015723 5.05159 -0.015723 3.94349 0.0471691C2.87133 0.0980818 1.91896 0.343661 1.13131 1.12832C0.343661 1.91297 0.101077 2.86534 0.0471691 3.94049C-0.015723 5.04859 -0.015723 8.3699 0.0471691 9.478C0.0980818 10.5532 0.343661 11.5055 1.13131 12.2902C1.91896 13.0748 2.86833 13.3204 3.94349 13.3743C5.05159 13.4372 8.37289 13.4372 9.48099 13.3743C10.5561 13.3234 11.5085 13.0778 12.2932 12.2902C13.0778 11.5055 13.3234 10.5532 13.3773 9.478C13.4402 8.3699 13.4402 5.05159 13.3773 3.94349ZM11.9458 10.667C11.7122 11.254 11.2599 11.7062 10.67 11.9428C9.78647 12.2932 7.69006 12.2123 6.71374 12.2123C5.73741 12.2123 3.63801 12.2902 2.75752 11.9428C2.17053 11.7092 1.7183 11.2569 1.48171 10.667C1.13131 9.78347 1.21217 7.68707 1.21217 6.71074C1.21217 5.73442 1.1343 3.63502 1.48171 2.75453C1.71531 2.16753 2.16753 1.71531 2.75752 1.47871C3.64101 1.12832 5.73741 1.20918 6.71374 1.20918C7.69006 1.20918 9.78946 1.13131 10.67 1.47871C11.2569 1.71231 11.7092 2.16454 11.9458 2.75453C12.2962 3.63801 12.2153 5.73442 12.2153 6.71074C12.2153 7.68707 12.2962 9.78647 11.9458 10.667Z" fill="black"/>
</svg>
