<svg width="10" height="10" viewBox="0 0 10 10" fill="none" xmlns="http://www.w3.org/2000/svg">
<path d="M2.19214 9.79317H0.161766V3.25477H2.19214V9.79317ZM1.17586 2.36287C0.526613 2.36287 0 1.82511 0 1.17586C4.64704e-09 0.864004 0.123885 0.564919 0.344402 0.344402C0.564919 0.123885 0.864004 0 1.17586 0C1.48772 0 1.7868 0.123885 2.00732 0.344402C2.22784 0.564919 2.35172 0.864004 2.35172 1.17586C2.35172 1.82511 1.82489 2.36287 1.17586 2.36287ZM9.7912 9.79317H7.76519V6.61032C7.76519 5.85177 7.74989 4.87899 6.70956 4.87899C5.65393 4.87899 5.49216 5.70312 5.49216 6.55567V9.79317H3.46397V3.25477H5.41128V4.14667H5.4397C5.71077 3.63295 6.37291 3.09082 7.36078 3.09082C9.41564 3.09082 9.79338 4.44397 9.79338 6.20153V9.79317H9.7912Z" fill="black"/>
</svg>
