<svg width="18" height="18" viewBox="0 0 18 18" fill="none" xmlns="http://www.w3.org/2000/svg">
<rect x="0.5" y="0.5" width="17" height="17" rx="8.5" stroke="black"/>
<path d="M9.31036 5.27581V8.37943H11.7933L8.68964 12.7245V9.62088H6.20674L9.31036 5.27581ZM9.31036 4.34473C9.16226 4.34474 9.01629 4.38009 8.88458 4.44783C8.75287 4.51557 8.63923 4.61376 8.55308 4.73423L5.44946 9.0793C5.34993 9.21848 5.29068 9.3824 5.27822 9.55306C5.26575 9.72371 5.30056 9.8945 5.37881 10.0467C5.45706 10.1988 5.57572 10.3265 5.72178 10.4156C5.86784 10.5048 6.03563 10.5519 6.20674 10.552H7.75855V12.7245C7.75858 12.9217 7.82122 13.1138 7.93744 13.2731C8.05366 13.4324 8.21747 13.5507 8.40524 13.611C8.59302 13.6712 8.79508 13.6703 8.98229 13.6083C9.16949 13.5463 9.33219 13.4265 9.44692 13.2661L12.5505 8.92101C12.6501 8.78183 12.7093 8.61791 12.7218 8.44725C12.7342 8.2766 12.6994 8.10581 12.6212 7.95364C12.5429 7.80147 12.4243 7.67381 12.2782 7.58467C12.1322 7.49553 11.9644 7.44836 11.7933 7.44835H10.2414V5.27581C10.2414 5.02887 10.1434 4.79205 9.96874 4.61744C9.79413 4.44282 9.5573 4.34473 9.31036 4.34473Z" fill="black"/>
</svg>
