<svg width="19" height="21" viewBox="0 0 19 21" fill="none" xmlns="http://www.w3.org/2000/svg">
<g clip-path="url(#clip0_45_578)">
<path d="M15.5197 3.09776C13.9246 1.52821 11.7612 0.646464 9.50539 0.646484C7.2496 0.646505 5.08621 1.52829 3.49114 3.09787C1.89607 4.66744 0.99998 6.79623 1 9.01593C1.00002 11.2356 1.89615 13.3644 3.49125 14.9339L9.14917 20.5013C9.19584 20.5473 9.25128 20.5838 9.3123 20.6088C9.37333 20.6337 9.43875 20.6465 9.50482 20.6465C9.57088 20.6465 9.6363 20.6337 9.69733 20.6088C9.75835 20.5838 9.81379 20.5473 9.86046 20.5013L15.5184 14.9339C17.1078 13.3614 18 11.2337 18 9.01585C18 6.79799 17.1078 4.6703 15.5184 3.09776H15.5197ZM9.50547 14.3181C8.42934 14.3181 7.37738 14.0041 6.48261 13.4158C5.58784 12.8275 4.89046 11.9913 4.47864 11.013C4.06682 10.0347 3.95907 8.95821 4.16902 7.91965C4.37896 6.88109 4.89716 5.92711 5.6581 5.17835C6.41904 4.42959 7.38853 3.91968 8.44398 3.71309C9.49943 3.50651 10.5934 3.61254 11.5877 4.01776C12.5819 4.42299 13.4316 5.10922 14.0295 5.98967C14.6274 6.87012 14.9465 7.90524 14.9465 8.96415C14.9449 10.3836 14.3711 11.7445 13.3511 12.7482C12.331 13.7519 10.948 14.3165 9.50547 14.3181Z" fill="black"/>
</g>
<defs>
<clipPath id="clip0_45_578">
<rect width="19" height="21" fill="white"/>
</clipPath>
</defs>
</svg>
