<?xml version="1.0" encoding="UTF-8"?>
<svg version="1.1" xmlns="http://www.w3.org/2000/svg" width="256" height="256">
<path d="M0 0 C3.79039123 2.9089049 5.31110664 5.54276171 6.875 9.9375 C8.19905613 13.57331541 9.26017438 15.57303457 12.375 17.875 C19.12555177 23.04316437 21.96475864 31.35017494 23.25 39.5 C23.35828125 40.4590625 23.4665625 41.418125 23.578125 42.40625 C23.8662999 44.99047843 23.8662999 44.99047843 25.0390625 47.078125 C26.66009591 50.32019182 26.11912415 53.42627537 26 57 C27.47742792 54.04514415 27.23669872 51.22709465 27.375 47.9375 C27.97472873 37.89114955 29.67327782 31.34667138 36.76953125 23.953125 C42.53838028 18.90159345 48.44919582 17.33885413 56.04296875 17.59375 C60.50560882 18.20684718 64.60763686 19.67416992 68.859375 21.125 C71.90321895 21.97303613 74.17999116 22.15374277 77.3125 22 C82.40049495 21.80208772 85.93964642 22.88938578 90 26 C96.5230592 32.68251176 98.1357539 39.7233652 98.625 48.9375 C98.68300781 49.96327148 98.68300781 49.96327148 98.7421875 51.00976562 C98.83522412 52.67279513 98.91863787 54.33635847 99 56 C99.33 56 99.66 56 100 56 C99.938125 55.030625 99.87625 54.06125 99.8125 53.0625 C99.80464176 49.1490947 100.88244675 46.02670007 102.22265625 42.3828125 C103.02086216 39.93605066 103.42609555 37.60400555 103.8125 35.0625 C105.10011858 28.23067248 108.40316128 21.63889349 114.125 17.5 C117.65932886 14.42667055 118.45156349 11.68508307 120.015625 7.37109375 C121.97189818 2.65895955 124.99214022 0.54125803 129.375 -1.8125 C134.84103082 -3.6030963 138.87667006 -3.72837872 144.125 -1.375 C148.1828862 0.87850573 150.50123596 3.06255364 153 7 C153.3828125 9.09375 153.3828125 9.09375 153.5625 11.25 C153.7790625 13.10625 153.7790625 13.10625 154 15 C155.84129672 16.07470014 155.84129672 16.07470014 158 17 C166.13578664 24.11881331 168.75675907 33.38883393 170.5546875 43.71875 C171.0037188 46.27909828 171.0037188 46.27909828 172.25 49.75 C173.16160454 53.70028633 172.8036734 55.39265321 171 59 C168.5 61.875 168.5 61.875 166 64 C165.34 64 164.68 64 164 64 C163.938125 65.27875 163.87625 66.5575 163.8125 67.875 C163.05538492 74.6250542 160.53114555 80.82780345 155.328125 85.29296875 C154.17570312 86.13794922 154.17570312 86.13794922 153 87 C154.05058594 87.29132813 155.10117188 87.58265625 156.18359375 87.8828125 C167.98484757 91.27569055 177.90265016 95.38928544 185 106 C189.65185723 115.26756013 193.1538715 125.54777694 191 136 C188.25145708 139.18624999 184.83909112 140.42083224 181 142 C179.74066213 142.59430558 178.48428461 143.19491262 177.23046875 143.80078125 C163.69409408 150.20587018 150.08801815 153.43442963 135.09716797 152.68041992 C123.04102287 152.16988879 116.86275879 154.27026497 107 161 C83.85393272 172.92936533 56.50373197 173.35039326 31.84765625 166.3359375 C23.72118577 163.66741757 14.89662472 160.07656477 8.16015625 154.7578125 C3.58529589 152.21308177 -0.36883205 152.6530667 -5.5 152.875 C-27.38091594 153.3113255 -45.19007425 147.92917655 -64 137 C-65.79118443 135.20881557 -65.25738212 132.6751867 -65.3125 130.25 C-65.21301834 118.92152568 -61.83807191 108.17947962 -53.99609375 99.87890625 C-46.01904216 92.31804866 -37.50362902 89.59154959 -27 87 C-27.721875 86.525625 -28.44375 86.05125 -29.1875 85.5625 C-35.24858996 80.04017359 -37.50181832 73.95419903 -37.95703125 65.87109375 C-37.97121094 65.25363281 -37.98539063 64.63617188 -38 64 C-38.763125 63.7525 -39.52625 63.505 -40.3125 63.25 C-43.35221435 61.83617937 -44.38377797 60.90919965 -46 58 C-47.40923456 53.12188037 -46.67396029 49.74288748 -45 45 C-44.67 44.67 -44.34 44.34 -44 44 C-43.72581878 42.19100002 -43.48120926 40.37749271 -43.25 38.5625 C-41.64198079 28.73960006 -38.01866837 22.67887029 -30.77734375 16.00390625 C-28.34670537 13.26342825 -27.76252826 10.58913781 -26.83203125 7.11328125 C-24.99995461 2.45997861 -20.72646482 -0.05044435 -16.5 -2.375 C-10.26357826 -3.93410544 -5.61933917 -3.01779326 0 0 Z M-17 8 C-17.33 8.66 -17.66 9.32 -18 10 C-12.72 10 -7.44 10 -2 10 C-7.22870733 4.77129267 -10.88017109 3.27898913 -17 8 Z M128 9 C131.42232972 10.14077657 134.08673217 10.09815117 137.6875 10.0625 C138.86699219 10.05347656 140.04648438 10.04445313 141.26171875 10.03515625 C142.16535156 10.02355469 143.06898438 10.01195313 144 10 C141.94767292 6.92460957 141.37340905 6.11272726 137.6875 5 C133.22158206 5 131.42498604 6.24330392 128 9 Z M-30 26 C-33.01201507 30.3487595 -34.47244598 34.72445983 -35 40 C-24.98195954 40.62940568 -16.32507905 39.5137944 -8.1875 33.25 C-5 31 -5 31 -1.9375 30.25 C1.92773225 31.23686781 3.20986636 33.11863008 5.5078125 36.2734375 C7.20638746 38.23880434 8.58639487 39.07024549 11 40 C11.99 40 12.98 40 14 40 C13.75049705 33.01391743 11.82645823 29.05371299 7 24 C1.41290451 19.05178762 -4.31330222 16.50774931 -11.9296875 16.75390625 C-18.90772688 17.58337131 -25.0380406 21.10405337 -30 26 Z M115.59375 27.68359375 C112.78226785 31.7698901 111.71636709 35.03642401 112 40 C122.589511 40.73737407 131.506412 38.48194873 140 32 C140.33 31.67 140.66 31.34 141 31 C143.75 30.5625 143.75 30.5625 147 31 C149.5 33.8125 149.5 33.8125 150.7109375 35.46484375 C152.73202876 37.87177971 155.11849858 38.87245597 158 40 C158.99 40 159.98 40 161 40 C160.07050317 33.07685119 158.07435972 27.92416726 153 23 C139.75041781 13.74595906 126.09110082 15.31478899 115.59375 27.68359375 Z M40.75 32.3125 C36.03295505 38.22732861 35.70746242 43.68656049 36 51 C41.02362904 50.52155914 44.03183762 49.10551838 48 46 C49.0209375 44.63875 49.0209375 44.63875 50.0625 43.25 C52 41 52 41 54.34765625 40.68359375 C57.46599256 41.05558969 58.86914728 41.95346486 61.375 43.8125 C68.69849157 48.9705738 75.30013425 51.16153699 84.3125 51.0625 C85.38113281 51.05347656 86.44976562 51.04445313 87.55078125 51.03515625 C88.76314453 51.01775391 88.76314453 51.01775391 90 51 C90.44874238 43.67054105 89.89647326 38.43956199 85 32.625 C81.80058532 30.02547557 79.32252761 29.93702249 75.375 30.125 C70.07590425 30.19482703 65.88394646 28.92761077 61 27 C52.89881204 24.29960401 46.45934938 26.07910406 40.75 32.3125 Z M-9.75 42.375 C-16.43141909 45.80285849 -22.62542308 47.11809183 -30 48 C-30.08797281 51.18732254 -30.14071341 54.37432788 -30.1875 57.5625 C-30.21263672 58.45775391 -30.23777344 59.35300781 -30.26367188 60.27539062 C-30.35938557 68.98533714 -28.24315432 74.61165604 -22 81 C-16.76740694 84.73756647 -11.20313555 84.79573751 -5 84 C0.68826809 82.18321476 4.66960633 77.81677742 8 73 C9.01973129 69.94080612 9.11533602 67.87581975 9.09765625 64.67578125 C9.09443359 63.64775391 9.09121094 62.61972656 9.08789062 61.56054688 C9.07951172 60.48869141 9.07113281 59.41683594 9.0625 58.3125 C9.05798828 57.22904297 9.05347656 56.14558594 9.04882812 55.02929688 C9.03703743 52.35280915 9.02058063 49.67643223 9 47 C8.45730469 46.74605469 7.91460937 46.49210937 7.35546875 46.23046875 C6.64003906 45.88628906 5.92460938 45.54210937 5.1875 45.1875 C4.12595703 44.68283203 4.12595703 44.68283203 3.04296875 44.16796875 C1 43 1 43 -0.57421875 41.36328125 C-3.63619035 38.43553306 -6.58886491 40.67662618 -9.75 42.375 Z M139.94921875 40.79296875 C139.20285156 41.25316406 138.45648438 41.71335938 137.6875 42.1875 C131.13545199 45.78277672 124.29060582 46.80434064 117 48 C116.91238337 51.54150893 116.85940261 55.08273633 116.8125 58.625 C116.78736328 59.62402344 116.76222656 60.62304688 116.73632812 61.65234375 C116.66935999 68.39380273 117.16710812 72.95578352 121.9375 78.08203125 C122.618125 78.65308594 123.29875 79.22414062 124 79.8125 C124.680625 80.39644531 125.36125 80.98039062 126.0625 81.58203125 C130.51748492 84.84243352 135.71881064 84.55632707 141 84 C146.91145165 82.21020063 150.56937564 79.04503582 154 74 C156.4866143 68.43965414 156.23008523 63.09060745 156.125 57.125 C156.11597656 56.15046875 156.10695312 55.1759375 156.09765625 54.171875 C156.07421623 51.78099272 156.04140442 49.39062739 156 47 C155.32453125 46.66226563 154.6490625 46.32453125 153.953125 45.9765625 C146 42 146 42 143.94140625 40.69921875 C141.97599121 39.75179336 141.97599121 39.75179336 139.94921875 40.79296875 Z M55 50 C54.48050781 50.40992188 53.96101563 50.81984375 53.42578125 51.2421875 C52.37970703 52.05042969 52.37970703 52.05042969 51.3125 52.875 C50.28576172 53.67550781 50.28576172 53.67550781 49.23828125 54.4921875 C46.90072844 56.06687403 44.62302224 56.99333687 42 58 C41.88280825 61.83307169 41.81241923 65.66567608 41.75 69.5 C41.71648437 70.57765625 41.68296875 71.6553125 41.6484375 72.765625 C41.55307393 80.58543779 42.57797052 86.03442669 47.74609375 92.0234375 C53.56321532 96.67176097 57.8938457 98.49924535 65.44140625 98.30859375 C72.20048277 97.49337689 76.52865293 93.98924745 80.7734375 88.87890625 C83.41877294 84.82665673 84.24902323 81.28757875 84.1953125 76.48046875 C84.18564453 74.9480957 84.18564453 74.9480957 84.17578125 73.38476562 C84.15902344 72.32966797 84.14226562 71.27457031 84.125 70.1875 C84.11597656 69.11306641 84.10695312 68.03863281 84.09765625 66.93164062 C84.07415306 64.28753146 84.04129575 61.64388128 84 59 C82.99582031 58.85304688 81.99164063 58.70609375 80.95703125 58.5546875 C71.41128991 57.03210425 63.60569852 54.55335761 55 50 Z M17 51 C18 54 18 54 18 54 Z M108 51 C109 54 109 54 109 54 Z M19 63 C18.01 63.495 18.01 63.495 17 64 C16.4938686 66.31461724 16.4938686 66.31461724 16.1875 69.0625 C14.79679142 77.43934618 10.98581188 82.16458541 5 88 C5.95519531 88.21914062 6.91039063 88.43828125 7.89453125 88.6640625 C18.80449813 91.28891049 29.32798642 94.33708378 36 104 C39.63 103.34 43.26 102.68 47 102 C46.2575 101.278125 45.515 100.55625 44.75 99.8125 C38.84408706 93.77236176 35.16577839 88.31118321 34.6875 79.75 C34.38691093 75.78017028 34.38691093 75.78017028 31.0625 73.6875 C30.051875 73.130625 29.04125 72.57375 28 72 C25.89172945 68.83759418 25.66182535 67.49342531 25.375 63.8125 C25.30023438 62.91144531 25.22546875 62.01039063 25.1484375 61.08203125 C25.07496094 60.05142578 25.07496094 60.05142578 25 59 C22.83648013 59 20.60770849 61.70599073 19 63 Z M101 59 C100.97421875 59.66386719 100.9484375 60.32773438 100.921875 61.01171875 C100.56936159 66.49971167 100.25618982 70.10862645 96 74 C94.97132813 74.40025391 94.97132813 74.40025391 93.921875 74.80859375 C91.76681491 75.84629679 91.76681491 75.84629679 91.34765625 78.28515625 C91.25355469 79.20167969 91.15945312 80.11820313 91.0625 81.0625 C89.96293439 88.35787878 87.40255515 94.23915558 81.6875 99.0625 C80.800625 99.701875 79.91375 100.34125 79 101 C82.58395752 103.15037451 85.81678261 104 90 104 C91.2187926 102.53786133 92.43269957 101.07079358 93.60083008 99.56787109 C95.87083202 97.02416974 98.58426031 95.78482204 101.625 94.3125 C102.23166504 94.01851318 102.83833008 93.72452637 103.46337891 93.42163086 C108.81045091 90.91330944 114.23742283 89.23483796 120 88 C119.41992188 87.39865234 119.41992188 87.39865234 118.828125 86.78515625 C113.72072738 81.21000192 110.06815555 75.37839302 109.625 67.6875 C109.37339345 63.77081423 109.37339345 63.77081423 106.0625 61.5625 C104.37774526 60.70293126 102.69168719 59.8458436 101 59 Z M33 61 C33 62.98 33 64.96 33 67 C33.33 67 33.66 67 34 67 C34 65.02 34 63.04 34 61 C33.67 61 33.34 61 33 61 Z M92 61 C92 62.65 92 64.3 92 66 C92.33 66 92.66 66 93 66 C93 64.35 93 62.7 93 61 C92.67 61 92.34 61 92 61 Z M-21 95 C-19.41980408 100.2063297 -17.22115005 104.98373311 -14.875 109.875 C-14.50246094 110.65875 -14.12992188 111.4425 -13.74609375 112.25 C-12.83381003 114.16813499 -11.91733016 116.08427329 -11 118 C-8.41041505 115.69706093 -7.12730411 113.49256153 -5.73828125 110.33203125 C-5.14370117 108.99301758 -5.14370117 108.99301758 -4.53710938 107.62695312 C-4.13298828 106.69818359 -3.72886719 105.76941406 -3.3125 104.8125 C-2.89677734 103.87212891 -2.48105469 102.93175781 -2.05273438 101.96289062 C-1.0289156 99.64458835 -0.01161857 97.32364567 1 95 C0.01 94.67 -0.98 94.34 -2 94 C-2.33 93.34 -2.66 92.68 -3 92 C-5.24940295 91.91880497 -7.49964871 91.86072181 -9.75 91.8125 C-11.00296875 91.77769531 -12.2559375 91.74289063 -13.546875 91.70703125 C-17.14109357 92.01197061 -18.44725126 92.54394629 -21 95 Z M129 92 C128.67 92.66 128.34 93.32 128 94 C127.01 94.66 126.02 95.32 125 96 C126.61494521 99.48392175 128.2436123 102.96125099 129.875 106.4375 C130.33519531 107.43072266 130.79539063 108.42394531 131.26953125 109.44726562 C131.71425781 110.39150391 132.15898437 111.33574219 132.6171875 112.30859375 C133.02565918 113.18314209 133.43413086 114.05769043 133.85498047 114.95874023 C134.83342667 117.15058527 134.83342667 117.15058527 137 118 C138.67294007 114.54466686 140.33727763 111.08526007 142 107.625 C142.47695312 106.64015625 142.95390625 105.6553125 143.4453125 104.640625 C143.89648438 103.69960937 144.34765625 102.75859375 144.8125 101.7890625 C145.23144531 100.91975098 145.65039062 100.05043945 146.08203125 99.15478516 C147.13064356 97.08369694 147.13064356 97.08369694 147 95 C144.533239 92.42734269 143.1381757 92.01172305 139.546875 91.70703125 C138.29390625 91.74183594 137.0409375 91.77664062 135.75 91.8125 C134.48671875 91.83957031 133.2234375 91.86664063 131.921875 91.89453125 C130.47554687 91.94673828 130.47554687 91.94673828 129 92 Z M102.015625 102.3828125 C100.63165851 103.53611791 99.30781874 104.76101382 98 106 C100.08886341 108.21135848 102.22835985 109.8730011 104.75 111.5625 C113.18922845 117.90743462 116.68355383 125.73037816 119.17578125 135.80078125 C119.91460109 138.66852271 120.8328938 141.28354757 122 144 C143.27380755 147.33706785 165.1703159 143.37161754 183 131 C182.60895266 120.71545498 180.70446267 111.36204211 173 104 C167.00200103 99.80256992 162.45408881 98.65646418 155 97 C149.72 108.22 144.44 119.44 139 131 C137.35 131 135.7 131 134 131 C132.83046117 128.68891662 131.6642399 126.37625275 130.5 124.0625 C130.14196289 123.35407959 129.78392578 122.64565918 129.41503906 121.91577148 C127.470138 118.03998285 125.59569059 114.14761962 123.828125 110.1875 C123.47943359 109.41398193 123.13074219 108.64046387 122.77148438 107.84350586 C122.09905232 106.34194451 121.43853479 104.83498134 120.79101562 103.32250977 C119.79047877 101.01268524 119.79047877 101.01268524 118 98 C112.43422176 95.90472129 106.62708327 99.16931599 102.015625 102.3828125 Z M-49 106 C-54.46313358 112.52003409 -56.02871752 120.231886 -57.6875 128.375 C-57.18340924 131.35139594 -57.18340924 131.35139594 -53.9375 133.5 C-35.87355149 143.3242527 -16.40399709 147.20062699 4 144 C5.64738259 140.16569905 6.68605213 136.35907442 7.6875 132.3125 C10.41230053 122.71034317 14.87597441 115.83309715 23.203125 110.25390625 C25.01874722 108.9869177 26.48259412 107.60638956 28 106 C19.94326791 99.36233945 19.94326791 99.36233945 9.99291992 96.9921875 C6.71815881 98.64822252 5.77739039 101.84854114 4.36328125 105.0625 C4.03837204 105.76898682 3.71346283 106.47547363 3.37870789 107.20336914 C2.34283925 109.46291306 1.32725455 111.73090607 0.3125 114 C-0.71714292 116.26698926 -1.75078682 118.53210868 -2.7858429 120.79663086 C-3.42875509 122.20704682 -4.06768381 123.61928642 -4.70231628 125.03344727 C-6.89304253 129.89304253 -6.89304253 129.89304253 -8 131 C-9.66617115 131.04063832 -11.33388095 131.042721 -13 131 C-14.95937389 126.9625601 -16.91649603 122.92403883 -18.87158203 118.88452148 C-19.53633562 117.51182959 -20.20169258 116.13942973 -20.86767578 114.76733398 C-21.82745415 112.78967407 -22.78502369 110.81095765 -23.7421875 108.83203125 C-24.03809784 108.22349808 -24.33400818 107.6149649 -24.6388855 106.98799133 C-26.22489774 103.70304679 -27.69177109 100.40532548 -29 97 C-36.09202587 97 -43.91272695 101.13391273 -49 106 Z M56 105 C55.01 106.485 55.01 106.485 54 108 C53.01 108.33 52.02 108.66 51 109 C52.66086912 114.56664924 55.11071736 119.65786353 57.625 124.875 C58.04523438 125.75414062 58.46546875 126.63328125 58.8984375 127.5390625 C59.9291692 129.69422878 60.96309426 131.84779922 62 134 C62.66 134 63.32 134 64 134 C65.83961674 130.21135025 67.67062072 126.41860225 69.5 122.625 C70.02464844 121.54476562 70.54929688 120.46453125 71.08984375 119.3515625 C71.58613281 118.3203125 72.08242187 117.2890625 72.59375 116.2265625 C73.05458984 115.27346191 73.51542969 114.32036133 73.99023438 113.33837891 C75.13214656 111.11849393 75.13214656 111.11849393 75 109 C74.01 108.67 73.02 108.34 72 108 C71.57847656 107.49210937 71.15695313 106.98421875 70.72265625 106.4609375 C68.09616766 104.23348459 65.81424975 104.60236257 62.4375 104.625 C60.70306641 104.61339844 60.70306641 104.61339844 58.93359375 104.6015625 C57.96550781 104.73304688 56.99742188 104.86453125 56 105 Z M38 112 C37.86473861 114.24834496 37.76789196 116.49902514 37.6875 118.75 C37.62949219 120.00296875 37.57148437 121.2559375 37.51171875 122.546875 C37.65706341 126.15879786 37.65706341 126.15879786 40.45703125 128.328125 C41.29621094 128.87984375 42.13539062 129.4315625 43 130 C44.59412284 133.18824568 44.10174735 136.62896662 44.0625 140.125 C44.05798828 140.87910156 44.05347656 141.63320312 44.04882812 142.41015625 C44.03703499 144.27347127 44.01909942 146.13674555 44 148 C42.35 148 40.7 148 39 148 C37.37183837 144.74367674 37.71159951 141.13157338 37.57421875 137.53125 C37.27125969 134.84027478 37.27125969 134.84027478 34.95703125 133.65625 C34.31121094 133.4396875 33.66539063 133.223125 33 133 C30.55289624 134.86977097 30.03068507 135.82502483 29.48828125 138.91796875 C29.43027344 139.99691406 29.37226562 141.07585937 29.3125 142.1875 C29.24675781 143.27417969 29.18101563 144.36085937 29.11328125 145.48046875 C29.07589844 146.31191406 29.03851563 147.14335937 29 148 C27.02 148 25.04 148 23 148 C22.9455548 145.79194476 22.90700717 143.58349446 22.875 141.375 C22.85179688 140.14523438 22.82859375 138.91546875 22.8046875 137.6484375 C23.00245415 133.95415644 23.37246468 131.32329069 25 128 C26.65 127.34 28.3 126.68 30 126 C30 122.37 30 118.74 30 115 C20.7605624 120.49966524 16.25708774 127.73968584 13.4375 138.05859375 C12.27001335 143.05310338 12.27001335 143.05310338 13 148 C25.81069677 160.60068535 50.06760922 163.0180979 67 163 C81.03820765 162.58981394 102.62476124 158.37523876 113 148 C113.79297757 139.59443773 111.15532689 132.0797259 107.25 124.6875 C104.19527249 121.03879769 100.76375132 117.9110937 97 115 C96.67 115 96.34 115 96 115 C96 120.61 96 126.22 96 132 C97.98 132.495 97.98 132.495 100 133 C102.27573293 137.55146586 102.26554773 141.11860163 101 146 C98.79080546 149.22882279 97.4289728 149.88878483 93.625 150.875 C89.80389657 151.00676219 87.41690204 150.70845102 84 149 C83.125 147.375 83.125 147.375 83 145 C82.87625 143.700625 82.7525 142.40125 82.625 141.0625 C82.4765625 139.09765625 82.4765625 139.09765625 83 137 C83.82628906 136.30390625 84.65257812 135.6078125 85.50390625 134.890625 C89.15244054 130.66540532 88.55993652 127.07400273 88.3125 121.6875 C88.28994141 120.75615234 88.26738281 119.82480469 88.24414062 118.86523438 C88.18542078 116.5751604 88.10336858 114.28842125 88 112 C86.35 111.67 84.7 111.34 83 111 C82.51120361 112.08531006 82.02240723 113.17062012 81.51879883 114.28881836 C79.70184066 118.30993216 77.86046919 122.31945662 76.01147461 126.32592773 C75.21438946 128.06211585 74.42397533 129.80138271 73.64038086 131.54370117 C72.51331186 134.04663555 71.36277234 136.53754381 70.20703125 139.02734375 C69.86098343 139.80963852 69.51493561 140.59193329 69.15840149 141.39793396 C66.62158938 146.77541054 66.62158938 146.77541054 63.23706055 147.99829102 C62.49883057 147.99885498 61.76060059 147.99941895 61 148 C54.80186145 135.75954203 48.86212915 123.40455476 43 111 C40.0745356 110.7763932 40.0745356 110.7763932 38 112 Z M91 139 C90.67 140.32 90.34 141.64 90 143 C90.99 143.33 91.98 143.66 93 144 C93.66 142.68 94.32 141.36 95 140 C93.68 139.67 92.36 139.34 91 139 Z " fill="#FFFFFF" transform="translate(65,78)"/>
<path d="M0 0 C8.9212187 8.78396918 13.16772111 19.16992963 13.46875 31.625 C13.07448297 44.10164379 8.98623846 54.64419815 -0.21875 63.3125 C-9.33588229 70.8719313 -19.75809431 74.56819317 -31.6171875 74.25390625 C-43.71171131 72.94801913 -53.71992029 67.85985414 -61.96875 59 C-70.08343575 48.20393983 -71.99246941 37.32277087 -70.96875 24 C-69.35589018 13.59632764 -63.29291626 4.04613429 -55.125 -2.50390625 C-37.87478177 -14.47280767 -16.19024915 -13.60919494 0 0 Z M-54.90234375 9.0703125 C-61.5744047 17.03239771 -63.6179386 24.38113425 -63.3046875 34.73046875 C-62.25951685 44.90265283 -57.74838533 52.41723165 -49.96875 59 C-41.32647804 64.3959363 -32.77021426 67.48479481 -22.546875 65.5390625 C-12.34880024 62.84702413 -4.10584012 57.06752896 1.25 47.91796875 C5.46226504 39.80935855 6.55062905 31.20774868 4.34765625 22.20703125 C0.67554389 12.37917866 -5.55445514 4.89745274 -14.87109375 0 C-29.24150372 -6.11256702 -44.4162137 -2.15726109 -54.90234375 9.0703125 Z " fill="#FFFFFF" transform="translate(156.96875,18)"/>
<path d="M0 0 C0.78890625 -0.00257812 1.5778125 -0.00515625 2.390625 -0.0078125 C3.21046875 -0.00007813 4.0303125 0.00765625 4.875 0.015625 C6.10476562 0.00402344 6.10476562 0.00402344 7.359375 -0.0078125 C8.14828125 -0.00523438 8.9371875 -0.00265625 9.75 0 C10.46929687 0.00225586 11.18859375 0.00451172 11.9296875 0.00683594 C13.875 0.265625 13.875 0.265625 16.875 2.265625 C17.16796875 4.8671875 17.16796875 4.8671875 17.0625 7.890625 C17.02189453 9.39496094 17.02189453 9.39496094 16.98046875 10.9296875 C16.94566406 11.70054688 16.91085938 12.47140625 16.875 13.265625 C18.03128906 13.23082031 18.03128906 13.23082031 19.2109375 13.1953125 C20.21382812 13.17726563 21.21671875 13.15921875 22.25 13.140625 C23.24773437 13.11742187 24.24546875 13.09421875 25.2734375 13.0703125 C27.875 13.265625 27.875 13.265625 29.875 15.265625 C30.13378906 17.38867187 30.13378906 17.38867187 30.140625 19.984375 C30.14449219 21.38236328 30.14449219 21.38236328 30.1484375 22.80859375 C30.14070313 23.78441406 30.13296875 24.76023437 30.125 25.765625 C30.13660156 27.22935547 30.13660156 27.22935547 30.1484375 28.72265625 C30.14585937 29.65464844 30.14328125 30.58664063 30.140625 31.546875 C30.13836914 32.40345703 30.13611328 33.26003906 30.13378906 34.14257812 C29.875 36.265625 29.875 36.265625 27.875 38.265625 C24.19475395 38.54191975 20.57005443 38.3515565 16.875 38.265625 C16.875 42.225625 16.875 46.185625 16.875 50.265625 C14.49884014 51.45370493 13.0238258 51.39477022 10.375 51.3984375 C9.0446875 51.40037109 9.0446875 51.40037109 7.6875 51.40234375 C6.759375 51.39847656 5.83125 51.39460938 4.875 51.390625 C3.946875 51.39449219 3.01875 51.39835937 2.0625 51.40234375 C1.175625 51.40105469 0.28875 51.39976563 -0.625 51.3984375 C-1.4396875 51.39730957 -2.254375 51.39618164 -3.09375 51.39501953 C-5.125 51.265625 -5.125 51.265625 -7.125 50.265625 C-7.125 46.305625 -7.125 42.345625 -7.125 38.265625 C-9.785625 38.3275 -9.785625 38.3275 -12.5 38.390625 C-15.5234375 38.4609375 -15.5234375 38.4609375 -18.125 38.265625 C-20.61557251 35.77505249 -20.3815813 34.98089841 -20.390625 31.546875 C-20.39320312 30.61488281 -20.39578125 29.68289062 -20.3984375 28.72265625 C-20.39070313 27.74683594 -20.38296875 26.77101563 -20.375 25.765625 C-20.38273437 24.78980469 -20.39046875 23.81398438 -20.3984375 22.80859375 C-20.39585938 21.87660156 -20.39328125 20.94460937 -20.390625 19.984375 C-20.38836914 19.12779297 -20.38611328 18.27121094 -20.38378906 17.38867188 C-20.125 15.265625 -20.125 15.265625 -18.125 13.265625 C-15.5234375 13.0703125 -15.5234375 13.0703125 -12.5 13.140625 C-10.99566406 13.16769531 -10.99566406 13.16769531 -9.4609375 13.1953125 C-8.69007812 13.21851563 -7.91921875 13.24171875 -7.125 13.265625 C-7.15980469 12.49476562 -7.19460937 11.72390625 -7.23046875 10.9296875 C-7.25753906 9.92679688 -7.28460938 8.92390625 -7.3125 7.890625 C-7.34730469 6.89289062 -7.38210937 5.89515625 -7.41796875 4.8671875 C-7.27294922 3.57941406 -7.27294922 3.57941406 -7.125 2.265625 C-4.07526315 0.2324671 -3.43543132 0.0107742 0 0 Z M0.875 8.265625 C0.81441406 8.96429688 0.75382812 9.66296875 0.69140625 10.3828125 C0.60761719 11.29289062 0.52382812 12.20296875 0.4375 13.140625 C0.35628906 14.04554687 0.27507812 14.95046875 0.19140625 15.8828125 C-0.125 18.265625 -0.125 18.265625 -1.125 20.265625 C-3.62890625 20.6796875 -3.62890625 20.6796875 -6.6875 20.890625 C-7.69941406 20.96539062 -8.71132812 21.04015625 -9.75390625 21.1171875 C-10.53636719 21.16617188 -11.31882812 21.21515625 -12.125 21.265625 C-12.125 24.235625 -12.125 27.205625 -12.125 30.265625 C-10.95130859 30.33910156 -10.95130859 30.33910156 -9.75390625 30.4140625 C-8.74199219 30.48882812 -7.73007813 30.56359375 -6.6875 30.640625 C-5.67816406 30.71023437 -4.66882813 30.77984375 -3.62890625 30.8515625 C-2.80261719 30.98820312 -1.97632813 31.12484375 -1.125 31.265625 C0.09193876 33.69950253 0.19459896 35.68401346 0.4375 38.390625 C0.52128906 39.30070312 0.60507813 40.21078125 0.69140625 41.1484375 C0.75199219 41.84710938 0.81257813 42.54578125 0.875 43.265625 C3.515 43.265625 6.155 43.265625 8.875 43.265625 C8.96587891 42.21761719 8.96587891 42.21761719 9.05859375 41.1484375 C9.14238281 40.23835938 9.22617188 39.32828125 9.3125 38.390625 C9.39371094 37.48570313 9.47492188 36.58078125 9.55859375 35.6484375 C9.875 33.265625 9.875 33.265625 10.875 31.265625 C13.37890625 30.8515625 13.37890625 30.8515625 16.4375 30.640625 C17.44941406 30.56585938 18.46132812 30.49109375 19.50390625 30.4140625 C20.28636719 30.36507812 21.06882813 30.31609375 21.875 30.265625 C21.875 27.295625 21.875 24.325625 21.875 21.265625 C20.70130859 21.19214844 20.70130859 21.19214844 19.50390625 21.1171875 C18.49199219 21.04242188 17.48007813 20.96765625 16.4375 20.890625 C15.42816406 20.82101563 14.41882813 20.75140625 13.37890625 20.6796875 C12.55261719 20.54304688 11.72632813 20.40640625 10.875 20.265625 C9.65806124 17.83174747 9.55540104 15.84723654 9.3125 13.140625 C9.18681641 11.77550781 9.18681641 11.77550781 9.05859375 10.3828125 C8.99800781 9.68414062 8.93742187 8.98546875 8.875 8.265625 C6.235 8.265625 3.595 8.265625 0.875 8.265625 Z " fill="#FFFFFF" transform="translate(123.125,23.734375)"/>
</svg>
