<svg width="50" height="50" viewBox="0 0 50 50" fill="none" xmlns="http://www.w3.org/2000/svg">
<path d="M25 18.7501C29.0271 18.7501 32.2917 15.4855 32.2917 11.4584C32.2917 7.43134 29.0271 4.16675 25 4.16675C20.9729 4.16675 17.7083 7.43134 17.7083 11.4584C17.7083 15.4855 20.9729 18.7501 25 18.7501Z" stroke="white" stroke-width="2" stroke-linecap="round" stroke-linejoin="round"/>
<path d="M4.16667 42.7084C4.16667 33.5032 12.5615 26.0417 22.9167 26.0417" stroke="white" stroke-width="2" stroke-linecap="round" stroke-linejoin="round"/>
<path d="M35.4167 44.7917C40.5943 44.7917 44.7917 40.5944 44.7917 35.4167C44.7917 30.2391 40.5943 26.0417 35.4167 26.0417C30.239 26.0417 26.0417 30.2391 26.0417 35.4167C26.0417 40.5944 30.239 44.7917 35.4167 44.7917Z" stroke="white" stroke-width="2"/>
<path d="M34.375 32.2917V36.4584H38.5417" stroke="white" stroke-width="2" stroke-linecap="round" stroke-linejoin="round"/>
</svg>
