<svg width="55" height="55" viewBox="0 0 55 55" fill="none" xmlns="http://www.w3.org/2000/svg">
<path fill-rule="evenodd" clip-rule="evenodd" d="M38.9583 18.3333C38.9583 24.6618 33.8284 29.7917 27.5 29.7917C21.1716 29.7917 16.0417 24.6618 16.0417 18.3333C16.0417 12.0049 21.1716 6.875 27.5 6.875C33.8284 6.875 38.9583 12.0049 38.9583 18.3333ZM36.6667 18.3333C36.6667 20.7645 35.7009 23.0961 33.9818 24.8151C32.2627 26.5342 29.9312 27.5 27.5 27.5C25.0688 27.5 22.7373 26.5342 21.0182 24.8151C19.2991 23.0961 18.3333 20.7645 18.3333 18.3333C18.3333 15.9022 19.2991 13.5706 21.0182 11.8515C22.7373 10.1324 25.0688 9.16667 27.5 9.16667C29.9312 9.16667 32.2627 10.1324 33.9818 11.8515C35.7009 13.5706 36.6667 15.9022 36.6667 18.3333ZM20.5265 33.063L20.5391 33.0882L20.625 33.2567H34.0874C34.3498 32.7594 34.9445 31.9665 35.5208 32.0982C36.8156 32.3927 38.1196 32.8029 39.372 33.3082L39.4098 33.2899L39.4224 33.3151L39.4316 33.3323C44.1467 35.2481 48.125 38.4954 48.125 41.9031V48.125H6.875V41.9031C6.875 37.5776 13.2871 33.5076 19.4792 32.0982C19.9845 31.9836 20.2847 32.5795 20.5265 33.063ZM37.4733 35.043C36.9819 34.8707 36.4847 34.7151 35.9826 34.5767L35.4716 35.5483H19.242L18.7676 34.6466L18.3551 34.7703C18.3467 34.8452 18.3406 34.9307 18.3368 35.027C18.3219 35.4223 18.3517 35.8909 18.417 36.3676C18.4836 36.8648 18.5909 37.3558 18.7378 37.8354C19.5427 37.9308 20.288 38.3075 20.8422 38.8991C21.3963 39.4906 21.7235 40.2589 21.7661 41.0684C21.8087 41.8778 21.5639 42.6762 21.075 43.3227C20.5861 43.9691 19.8844 44.422 19.0939 44.6013C18.3035 44.7807 17.4751 44.6749 16.755 44.3028C16.035 43.9306 15.4696 43.316 15.1587 42.5674C14.8479 41.8189 14.8115 40.9845 15.0561 40.2118C15.3007 39.439 15.8105 38.7775 16.4954 38.3442L16.4862 38.3121C16.3332 37.7764 16.2195 37.2303 16.1459 36.6781C16.0973 36.3254 16.0652 35.9705 16.0497 35.6148C14.6334 36.2198 13.3123 36.9508 12.2054 37.7575C10.0031 39.3662 9.16667 40.8696 9.16667 41.9031V45.8333H45.8333V41.9031C45.8333 40.8684 44.9969 39.3651 42.7946 37.7586C41.8342 37.0684 40.8115 36.4692 39.7398 35.9689C39.6929 36.5898 39.5979 37.2062 39.4556 37.8125H40.1042C40.3169 37.8126 40.5254 37.872 40.7063 37.9839C40.8873 38.0958 41.0335 38.2558 41.1285 38.4461L42.2744 40.7378C42.3546 40.8971 42.3958 41.0724 42.3958 41.25V43.5417C42.3958 43.8456 42.2751 44.137 42.0602 44.3519C41.8453 44.5668 41.5539 44.6875 41.25 44.6875H38.9583V42.3958H40.1042V41.5204L39.396 40.1042H36.229L35.5208 41.5204V42.3958H36.6667V44.6875H34.375C34.0711 44.6875 33.7797 44.5668 33.5648 44.3519C33.3499 44.137 33.2292 43.8456 33.2292 43.5417V41.25C33.2292 41.0724 33.2704 40.8971 33.3506 40.7378L34.4965 38.4461C34.5916 38.2558 34.7377 38.0958 34.9187 37.9839C35.0996 37.872 35.3081 37.8126 35.5208 37.8125H37.0815L37.1239 37.6704C37.2316 37.3026 37.3278 36.8454 37.3931 36.3688C37.4573 35.8967 37.4871 35.4349 37.4733 35.043ZM19.4792 41.25C19.4792 41.9077 18.9498 42.413 18.3333 42.413C17.7169 42.413 17.1875 41.9089 17.1875 41.25C17.1875 40.5923 17.7169 40.087 18.3333 40.087C18.9498 40.087 19.4792 40.5911 19.4792 41.25Z" fill="white"/>
</svg>
