<svg width="19" height="19" viewBox="0 0 19 19" fill="none" xmlns="http://www.w3.org/2000/svg">
<path d="M9.4 0C4.20784 0 0 4.04627 0 9.03906C0 14.0319 4.20784 18.0781 9.4 18.0781C14.5922 18.0781 18.8 14.0319 18.8 9.03906C18.8 4.04627 14.5922 0 9.4 0ZM9.4 17.2173C4.7 17.2173 0.895238 13.5586 0.895238 9.03906C0.895238 4.51953 4.7 0.860863 9.4 0.860863C14.1 0.860863 17.9048 4.51953 17.9048 9.03906C17.9048 13.5586 14.1 17.2173 9.4 17.2173Z" fill="black"/>
<path d="M12.8693 10.2011C12.6455 9.96406 12.0859 9.68496 11.3918 10.0935L10.6976 10.7392C10.1153 10.3945 8.70606 9.46975 7.96735 8.11376L8.39223 7.70519C8.48141 7.64046 8.81711 7.29663 8.83985 6.82247C8.83985 6.58538 8.79526 6.24156 8.41497 5.87586L6.96021 4.49882L6.91562 4.45595C6.64723 4.26259 5.95306 4.04738 5.32621 4.56356C5.2589 4.60643 3.89419 5.74724 4.31907 7.66223C4.3418 8.00692 4.65479 9.85722 7.72075 12.4189C7.78807 12.4837 9.57855 13.9473 11.6146 14.2264C11.6819 14.2264 11.8611 14.2693 12.1295 14.2693C12.6891 14.2693 13.5843 14.1188 14.3003 13.3437C14.4122 13.2579 14.6588 12.999 14.7252 12.6123C14.7479 12.3752 14.7252 12.0095 14.3895 11.622L12.8901 10.2012L12.8693 10.2011ZM13.6972 12.6981L13.6299 12.7628C12.8911 13.6018 11.8167 13.4085 11.7721 13.3866H11.7493C9.95887 13.1285 8.32483 11.7725 8.30312 11.7725C5.32623 9.27553 5.21433 7.59771 5.21433 7.59771V7.51196C4.87861 6.09119 5.86302 5.2522 5.9085 5.20937C6.0204 5.12362 6.10957 5.10176 6.17689 5.10176C6.2442 5.10176 6.31152 5.12362 6.35611 5.14464L7.76629 6.4788C7.87819 6.58641 7.92278 6.69402 7.92278 6.77976C7.92278 6.90922 7.81088 7.03785 7.76629 7.05971L6.84831 7.92057L6.98295 8.20053C7.99009 10.3746 10.4292 11.6012 10.5194 11.644L10.8105 11.7945L11.8622 10.8041C12.0414 10.7184 12.1306 10.7613 12.1752 10.8041L13.6527 12.1812C13.8319 12.3964 13.8319 12.5687 13.6527 12.6973L13.6972 12.6981Z" fill="black"/>
</svg>
