<svg width="11" height="14" viewBox="0 0 11 14" fill="none" xmlns="http://www.w3.org/2000/svg">
<path d="M5.65854 0C2.81263 0 0 1.89727 0 4.96786C0 6.92061 1.09842 8.03013 1.76413 8.03013C2.03874 8.03013 2.19684 7.26456 2.19684 7.04821C2.19684 6.79025 1.53946 6.24104 1.53946 5.16758C1.53946 2.93745 3.23702 1.35638 5.43386 1.35638C7.32281 1.35638 8.72081 2.42984 8.72081 4.40201C8.72081 5.87489 8.12999 8.63759 6.21607 8.63759C5.5254 8.63759 4.93458 8.13831 4.93458 7.42267C4.93458 6.37418 5.66686 5.35897 5.66686 4.27719C5.66686 2.44094 3.06227 2.77379 3.06227 4.99283C3.06227 5.45883 3.12052 5.97475 3.32855 6.39914C2.94577 8.04677 2.16356 10.5016 2.16356 12.1991C2.16356 12.7234 2.23845 13.2393 2.28838 13.7636C2.38269 13.869 2.33553 13.8579 2.47977 13.8052C3.87776 11.8913 3.82784 11.5168 4.46026 9.01205C4.80144 9.66112 5.6835 10.0106 6.3825 10.0106C9.32827 10.0106 10.6514 7.13974 10.6514 4.5518C10.6514 1.79742 8.27145 0 5.65854 0Z" fill="black"/>
</svg>
