<svg width="22" height="22" viewBox="0 0 22 22" fill="none" xmlns="http://www.w3.org/2000/svg">
<g opacity="0.5">
<path d="M14.6667 2.75C14.1805 2.75 13.7142 2.94315 13.3703 3.28697C13.0265 3.63079 12.8334 4.0971 12.8334 4.58333V10.0833C12.8334 10.5696 13.0265 11.0359 13.3703 11.3797C13.7142 11.7235 14.1805 11.9167 14.6667 11.9167C14.9098 11.9167 15.143 12.0132 15.3149 12.1852C15.4868 12.3571 15.5834 12.5902 15.5834 12.8333V13.75C15.5834 14.2362 15.3902 14.7025 15.0464 15.0464C14.7026 15.3902 14.2363 15.5833 13.75 15.5833C13.5069 15.5833 13.2738 15.6799 13.1019 15.8518C12.93 16.0237 12.8334 16.2569 12.8334 16.5V18.3333C12.8334 18.5764 12.93 18.8096 13.1019 18.9815C13.2738 19.1534 13.5069 19.25 13.75 19.25C15.2087 19.25 16.6077 18.6705 17.6391 17.6391C18.6706 16.6076 19.25 15.2087 19.25 13.75V4.58333C19.25 4.0971 19.0569 3.63079 18.7131 3.28697C18.3693 2.94315 17.9029 2.75 17.4167 2.75H14.6667Z" stroke="#EAA48C" stroke-width="1.375" stroke-linecap="round" stroke-linejoin="round"/>
<path d="M4.58333 2.75C4.0971 2.75 3.63079 2.94315 3.28697 3.28697C2.94315 3.63079 2.75 4.0971 2.75 4.58333V10.0833C2.75 10.5696 2.94315 11.0359 3.28697 11.3797C3.63079 11.7235 4.0971 11.9167 4.58333 11.9167C4.82645 11.9167 5.05961 12.0132 5.23151 12.1852C5.40342 12.3571 5.5 12.5902 5.5 12.8333V13.75C5.5 14.2362 5.30685 14.7025 4.96303 15.0464C4.61921 15.3902 4.1529 15.5833 3.66667 15.5833C3.42355 15.5833 3.19039 15.6799 3.01849 15.8518C2.84658 16.0237 2.75 16.2569 2.75 16.5V18.3333C2.75 18.5764 2.84658 18.8096 3.01849 18.9815C3.19039 19.1534 3.42355 19.25 3.66667 19.25C5.12536 19.25 6.5243 18.6705 7.55575 17.6391C8.5872 16.6076 9.16667 15.2087 9.16667 13.75V4.58333C9.16667 4.0971 8.97351 3.63079 8.6297 3.28697C8.28588 2.94315 7.81956 2.75 7.33333 2.75H4.58333Z" stroke="#EAA48C" stroke-width="1.375" stroke-linecap="round" stroke-linejoin="round"/>
</g>
</svg>
