<svg width="14" height="14" viewBox="0 0 14 14" fill="none" xmlns="http://www.w3.org/2000/svg">
<path d="M3.5 5.25C4.4665 5.25 5.25 4.4665 5.25 3.5C5.25 2.5335 4.4665 1.75 3.5 1.75C2.5335 1.75 1.75 2.5335 1.75 3.5C1.75 4.4665 2.5335 5.25 3.5 5.25Z" stroke="#1C3A27" stroke-width="0.875" stroke-linecap="round" stroke-linejoin="round"/>
<path d="M4.73666 4.73657L7 6.99991" stroke="#1C3A27" stroke-width="0.875" stroke-linecap="round" stroke-linejoin="round"/>
<path d="M11.6667 2.33325L4.73666 9.26325" stroke="#1C3A27" stroke-width="0.875" stroke-linecap="round" stroke-linejoin="round"/>
<path d="M3.5 12.25C4.4665 12.25 5.25 11.4665 5.25 10.5C5.25 9.5335 4.4665 8.75 3.5 8.75C2.5335 8.75 1.75 9.5335 1.75 10.5C1.75 11.4665 2.5335 12.25 3.5 12.25Z" stroke="#1C3A27" stroke-width="0.875" stroke-linecap="round" stroke-linejoin="round"/>
<path d="M8.63333 8.6333L11.6667 11.6666" stroke="#1C3A27" stroke-width="0.875" stroke-linecap="round" stroke-linejoin="round"/>
</svg>
