<svg width="20" height="20" viewBox="0 0 20 20" fill="none" xmlns="http://www.w3.org/2000/svg">
<path d="M16.6666 10.8331C16.6666 14.9997 13.75 17.0831 10.2833 18.2914C10.1018 18.3529 9.90459 18.35 9.72498 18.2831C6.24998 17.0831 3.33331 14.9997 3.33331 10.8331V4.99972C3.33331 4.77871 3.42111 4.56675 3.57739 4.41047C3.73367 4.25419 3.94563 4.16639 4.16665 4.16639C5.83331 4.16639 7.91665 3.16639 9.36665 1.89972C9.54319 1.74889 9.76777 1.66602 9.99998 1.66602C10.2322 1.66602 10.4568 1.74889 10.6333 1.89972C12.0916 3.17472 14.1666 4.16639 15.8333 4.16639C16.0543 4.16639 16.2663 4.25419 16.4226 4.41047C16.5788 4.56675 16.6666 4.77871 16.6666 4.99972V10.8331Z" stroke="#EAA48C" stroke-width="1.25" stroke-linecap="round" stroke-linejoin="round"/>
</svg>
