<svg width="21" height="20" viewBox="0 0 21 20" fill="none" xmlns="http://www.w3.org/2000/svg">
<g clip-path="url(#clip0_45_536)">
<circle cx="10.4961" cy="10.0781" r="9.5" stroke="black"/>
<path d="M9.71582 6.66699H9.52539L9.55273 6.62793H9.63574C9.67276 6.62792 9.71139 6.62205 9.75098 6.61426L9.71582 6.66699Z" fill="black" stroke="black"/>
<path d="M13.957 8.22852L13.6396 8.69336H13.0137C13.045 8.66405 13.0755 8.63181 13.1016 8.59375V8.59277L13.2695 8.34766H13.4561C13.6041 8.34755 13.7801 8.28298 13.9082 8.15625L13.957 8.22852Z" fill="black" stroke="black"/>
<path d="M9.55078 9.7832L9.23242 10.249H8.6084C8.61953 10.2386 8.63106 10.2283 8.6416 10.2168L8.69531 10.1494L8.86328 9.90332H9.0498C9.19783 9.90321 9.37383 9.83864 9.50195 9.71191L9.55078 9.7832Z" fill="black" stroke="black"/>
<path d="M15.1807 13.3838H14.6152C14.6235 13.3435 14.6289 13.3005 14.6289 13.2549C14.6289 13.2142 14.6229 13.1761 14.6162 13.1396C14.6318 13.1409 14.647 13.1436 14.6621 13.1436H15.1084C15.1318 13.1435 15.1558 13.1399 15.1807 13.1367V13.3838ZM13.9102 13.3838H13.6523C13.6496 13.3756 13.6448 13.368 13.6426 13.3594H13.9199C13.9177 13.368 13.9129 13.3756 13.9102 13.3838ZM14.0615 12.3662C14.0525 12.3974 14.0459 12.4302 14.042 12.4648L14.0381 12.5391L14.042 12.6133C14.0435 12.627 14.0464 12.6402 14.0488 12.6533C14.0337 12.6521 14.0185 12.6504 14.0039 12.6504H13.5586C13.2952 12.6504 12.9337 12.8461 12.9336 13.2549C12.9336 13.3005 12.9389 13.3435 12.9473 13.3838H11.3965C11.4048 13.3435 11.4102 13.3005 11.4102 13.2549C11.4101 12.8461 11.0486 12.6504 10.7852 12.6504H10.3398C10.2356 12.6504 10.1161 12.6817 10.0098 12.7441C10.0397 12.6922 10.0637 12.6349 10.0762 12.5693C10.2018 12.6033 10.33 12.6217 10.4521 12.627C10.6323 12.6346 10.8266 12.616 11.0107 12.5596L11.1904 12.4902L11.2295 12.4707L11.2266 12.5391L11.2305 12.6133C11.271 12.9715 11.6037 13.1433 11.8506 13.1436H12.2969C12.5429 13.1436 12.8778 12.9723 12.917 12.6104C12.975 12.6182 13.0325 12.6239 13.0889 12.626C13.3294 12.6348 13.5952 12.5953 13.8281 12.4814L14.0615 12.3662ZM10.6914 13.3838H10.4336C10.4308 13.3756 10.4261 13.368 10.4238 13.3594H10.7012C10.6989 13.368 10.6942 13.3756 10.6914 13.3838ZM6.77441 12.2158C6.79459 12.2209 6.80528 12.2264 6.80762 12.2275H6.80859L7.14258 12.4248V12.4258C7.36593 12.5582 7.62895 12.6171 7.86914 12.626C8.04184 12.6323 8.2273 12.6115 8.4043 12.5586C8.46193 12.8931 8.77979 13.0547 9.01855 13.0547H9.46387C9.56792 13.0547 9.68714 13.0217 9.79395 12.959C9.74628 13.0411 9.71487 13.1389 9.71484 13.2549C9.71484 13.3005 9.72018 13.3435 9.72852 13.3838H8.42773C8.43603 13.3435 8.44141 13.3005 8.44141 13.2549C8.44131 12.8461 8.07982 12.6504 7.81641 12.6504H7.37109C7.23647 12.6504 7.07648 12.7021 6.95215 12.8066C6.95272 12.7954 6.9541 12.784 6.9541 12.7725C6.9541 12.4795 6.76832 12.2974 6.56641 12.2168C6.57342 12.2146 6.58422 12.2121 6.59668 12.21C6.62209 12.2055 6.65311 12.2029 6.68652 12.2041C6.71985 12.2053 6.75036 12.2098 6.77441 12.2158ZM7.72266 13.3838H7.46484C7.46209 13.3756 7.45734 13.368 7.45508 13.3594H7.73242C7.73016 13.368 7.72541 13.3756 7.72266 13.3838ZM6.74609 13.2549C6.74609 13.3005 6.75143 13.3435 6.75977 13.3838H5.81055V13.3691C5.83566 13.3724 5.85994 13.3769 5.88379 13.377H6.33008C6.46344 13.3769 6.62247 13.325 6.74707 13.2207C6.7465 13.2319 6.7461 13.2433 6.74609 13.2549ZM13.793 12.9473C13.8462 12.9923 13.8956 13.062 13.9189 13.1504H13.6426C13.6661 13.0613 13.7169 12.9913 13.7705 12.9463C13.7737 12.9436 13.777 12.941 13.7803 12.9385C13.7843 12.9416 13.789 12.9439 13.793 12.9473ZM10.5742 12.9473C10.6275 12.9923 10.6768 13.062 10.7002 13.1504H10.4248C10.4481 13.0625 10.4976 12.9929 10.5518 12.9473C10.5553 12.9443 10.5589 12.9413 10.5625 12.9385C10.5663 12.9415 10.5705 12.9441 10.5742 12.9473ZM7.60547 12.9473C7.65874 12.9923 7.70806 13.062 7.73145 13.1504H7.45508C7.47862 13.0613 7.52939 12.9913 7.58301 12.9463C7.58622 12.9436 7.58951 12.941 7.59277 12.9385C7.5968 12.9416 7.60152 12.9439 7.60547 12.9473ZM6.24512 12.877C6.22173 12.9653 6.17238 13.035 6.11914 13.0801C6.11536 13.0833 6.11029 13.0849 6.10645 13.0879C6.10282 13.085 6.09829 13.0831 6.09473 13.0801C6.0415 13.035 5.99213 12.9653 5.96875 12.877H6.24512ZM12.2119 12.6436C12.1886 12.732 12.1392 12.8016 12.0859 12.8467C12.0823 12.8497 12.0779 12.8516 12.0742 12.8545C12.0706 12.8516 12.0661 12.8497 12.0625 12.8467C12.0092 12.8016 11.9599 12.732 11.9365 12.6436H12.2119ZM15.0234 12.6436C15.0001 12.7319 14.9507 12.8016 14.8975 12.8467C14.8937 12.8498 14.8885 12.8515 14.8848 12.8545C14.8812 12.8517 14.8766 12.8497 14.873 12.8467C14.8198 12.8016 14.7704 12.7319 14.7471 12.6436H15.0234ZM9.37891 12.5547C9.35548 12.6428 9.30605 12.7119 9.25293 12.7568C9.24936 12.7599 9.24484 12.7618 9.24121 12.7646C9.23756 12.7618 9.23308 12.7599 9.22949 12.7568C9.17635 12.7119 9.12695 12.6428 9.10352 12.5547H9.37891ZM6.11914 12.4648C6.1722 12.5099 6.22175 12.579 6.24512 12.667H5.96777C5.99141 12.5775 6.04302 12.5083 6.0957 12.4639C6.09911 12.461 6.10298 12.4588 6.10645 12.4561C6.11034 12.4591 6.11532 12.4616 6.11914 12.4648ZM14.9629 12.4346H14.7461C14.7561 12.3966 14.7719 12.3626 14.79 12.332L14.9629 12.4346ZM12.1455 12.2979C12.1739 12.3361 12.1979 12.3815 12.2119 12.4346H11.9355C11.9571 12.3529 12.0021 12.2878 12.0518 12.2422L12.1455 12.2979ZM9.31348 12.209C9.3415 12.247 9.36498 12.2922 9.37891 12.3447H9.10352C9.11681 12.2947 9.13849 12.251 9.16504 12.2139C9.16976 12.2127 9.17521 12.2111 9.18164 12.21C9.20686 12.2055 9.23816 12.2029 9.27148 12.2041C9.28607 12.2046 9.30034 12.2073 9.31348 12.209Z" fill="black" stroke="black"/>
<path d="M11.9932 10.7666L12.0283 10.7783L12.3633 10.9766C12.5864 11.1085 12.8495 11.1679 13.0898 11.1768C13.3304 11.1855 13.5962 11.1452 13.8291 11.0312V11.0322L14.3633 10.7695C14.3641 10.7692 14.3677 10.7692 14.373 10.7676C14.3799 10.7655 14.3893 10.7629 14.4014 10.7607C14.4265 10.7564 14.4577 10.7536 14.4912 10.7549C14.5247 10.7562 14.5559 10.7611 14.5811 10.7676C14.5934 10.7708 14.6033 10.7745 14.6104 10.7773C14.6136 10.7787 14.6164 10.7794 14.6182 10.7803C14.62 10.7812 14.6211 10.7822 14.6211 10.7822L14.6338 10.7891L14.6475 10.7959L15.1816 11.0703V11.1533C14.9783 11.0527 14.7516 11.0039 14.541 10.9961C14.3003 10.9872 14.0347 11.027 13.8018 11.1406H13.8008L13.2666 11.4014L13.2656 11.4023C13.263 11.4034 13.2512 11.4081 13.2285 11.4121C13.2033 11.4165 13.172 11.4182 13.1387 11.417C13.1052 11.4158 13.0739 11.4114 13.0498 11.4053C13.0304 11.4003 13.0202 11.3958 13.0176 11.3945H13.0166L12.6826 11.1953H12.6816C12.4594 11.064 12.1977 11.0044 11.958 10.9941C11.778 10.9864 11.5837 11.005 11.3994 11.0615L11.2188 11.1318L10.6436 11.4033C10.6436 11.4033 10.64 11.4051 10.6328 11.4072C10.6254 11.4094 10.6154 11.4119 10.6025 11.4141C10.5762 11.4184 10.5441 11.4204 10.5098 11.4189C10.4754 11.4175 10.4439 11.4126 10.4189 11.4062C10.3944 11.3999 10.3828 11.3945 10.3828 11.3945V11.3936L10.0713 11.21C10.0763 11.2032 10.0831 11.1974 10.0879 11.1904L10.0889 11.1895L10.1279 11.1318C10.2372 11.1576 10.3472 11.1742 10.4531 11.1787C10.6931 11.1889 10.9585 11.1518 11.1914 11.042V11.041L11.7676 10.7686C11.7685 10.7682 11.7723 10.7674 11.7783 10.7656C11.7857 10.7634 11.7958 10.7609 11.8086 10.7588C11.8349 10.7544 11.867 10.7515 11.9014 10.7529C11.936 10.7544 11.9681 10.7602 11.9932 10.7666ZM6.77539 10.7666C6.79679 10.772 6.80714 10.7776 6.80859 10.7783L7.14355 10.9766H7.14453C7.26859 11.0498 7.40539 11.0976 7.54297 11.1289L7.58105 11.1836V11.1846C7.65444 11.2941 7.75444 11.3653 7.85938 11.4082C7.8492 11.4065 7.83878 11.4075 7.83008 11.4053C7.80657 11.3993 7.79631 11.3942 7.79688 11.3945V11.3936L7.46191 11.1963C7.23875 11.0644 6.97568 11.0049 6.73535 10.9961C6.55486 10.9895 6.36015 11.0105 6.17578 11.0693L5.99609 11.1406L5.8125 11.2295V11.0967L6.54004 10.7793L6.5498 10.7754L6.55957 10.7705C6.55958 10.7705 6.57165 10.7653 6.59766 10.7607C6.62298 10.7563 6.65403 10.7537 6.6875 10.7549C6.72092 10.7561 6.75128 10.7605 6.77539 10.7666Z" fill="black" stroke="black"/>
<path d="M6.10667 8.3328H6.65338V8.79371C6.65338 8.85133 6.70867 8.89847 6.77763 8.89847C6.84659 8.89847 6.90189 8.85133 6.90189 8.79371V8.3328H7.44859C7.51755 8.3328 7.57284 8.28566 7.57284 8.22804C7.57284 8.17043 7.51755 8.12329 7.44859 8.12329H6.90189V7.66237C6.90189 7.60476 6.84659 7.55762 6.77763 7.55762C6.70867 7.55762 6.65338 7.60476 6.65338 7.66237V8.12329H6.10667C6.03771 8.12329 5.98242 8.17043 5.98242 8.22804C5.98242 8.28618 6.03833 8.3328 6.10667 8.3328Z" fill="black"/>
<path d="M10.3898 7.8362V8.04361H10.1438C10.0748 8.04361 10.0195 8.09075 10.0195 8.14837C10.0195 8.20598 10.0748 8.25312 10.1438 8.25312H10.3898V8.46054C10.3898 8.51815 10.4451 8.56529 10.5141 8.56529C10.583 8.56529 10.6383 8.51815 10.6383 8.46054V8.25312H10.8843C10.9533 8.25312 11.0086 8.20598 11.0086 8.14837C11.0086 8.09075 10.9533 8.04361 10.8843 8.04361H10.6383V7.8362C10.6383 7.77858 10.583 7.73145 10.5141 7.73145C10.4451 7.73145 10.3898 7.77858 10.3898 7.8362Z" fill="black"/>
<path d="M11.927 6.02265H12.173V6.23007C12.173 6.28768 12.2283 6.33482 12.2973 6.33482C12.3662 6.33482 12.4215 6.28768 12.4215 6.23007V6.02265H12.6675C12.7365 6.02265 12.7918 5.97552 12.7918 5.9179C12.7918 5.86029 12.7365 5.81315 12.6675 5.81315H12.4215V5.60573C12.4215 5.54812 12.3662 5.50098 12.2973 5.50098C12.2283 5.50098 12.173 5.54812 12.173 5.60573V5.81315H11.927C11.858 5.81315 11.8027 5.86029 11.8027 5.9179C11.8027 5.97552 11.8586 6.02265 11.927 6.02265Z" fill="black"/>
</g>
<defs>
<clipPath id="clip0_45_536">
<rect width="21" height="20" fill="white"/>
</clipPath>
</defs>
</svg>
