<svg width="12" height="12" viewBox="0 0 12 12" fill="none" xmlns="http://www.w3.org/2000/svg">
<g clip-path="url(#clip0_1_175)">
<path d="M5.50851 1.40698C5.52993 1.29228 5.59079 1.18868 5.68056 1.11414C5.77032 1.03959 5.88333 0.998779 6.00001 0.998779C6.11669 0.998779 6.2297 1.03959 6.31946 1.11414C6.40922 1.18868 6.47008 1.29228 6.49151 1.40698L7.01701 4.18598C7.05433 4.38355 7.15035 4.56529 7.29252 4.70746C7.4347 4.84964 7.61643 4.94565 7.81401 4.98298L10.593 5.50848C10.7077 5.5299 10.8113 5.59076 10.8858 5.68053C10.9604 5.77029 11.0012 5.88329 11.0012 5.99998C11.0012 6.11666 10.9604 6.22967 10.8858 6.31943C10.8113 6.40919 10.7077 6.47005 10.593 6.49148L7.81401 7.01698C7.61643 7.0543 7.4347 7.15031 7.29252 7.29249C7.15035 7.43467 7.05433 7.6164 7.01701 7.81398L6.49151 10.593C6.47008 10.7077 6.40922 10.8113 6.31946 10.8858C6.2297 10.9604 6.11669 11.0012 6.00001 11.0012C5.88333 11.0012 5.77032 10.9604 5.68056 10.8858C5.59079 10.8113 5.52993 10.7077 5.50851 10.593L4.98301 7.81398C4.94568 7.6164 4.84967 7.43467 4.70749 7.29249C4.56532 7.15031 4.38358 7.0543 4.18601 7.01698L1.40701 6.49148C1.29231 6.47005 1.18871 6.40919 1.11417 6.31943C1.03962 6.22967 0.99881 6.11666 0.99881 5.99998C0.99881 5.88329 1.03962 5.77029 1.11417 5.68053C1.18871 5.59076 1.29231 5.5299 1.40701 5.50848L4.18601 4.98298C4.38358 4.94565 4.56532 4.84964 4.70749 4.70746C4.84967 4.56529 4.94568 4.38355 4.98301 4.18598L5.50851 1.40698Z" stroke="#C21725" stroke-linecap="round" stroke-linejoin="round"/>
<path d="M10 1V3" stroke="#C21725" stroke-linecap="round" stroke-linejoin="round"/>
<path d="M11 2H9" stroke="#C21725" stroke-linecap="round" stroke-linejoin="round"/>
<path d="M2 11C2.55228 11 3 10.5523 3 10C3 9.44772 2.55228 9 2 9C1.44772 9 1 9.44772 1 10C1 10.5523 1.44772 11 2 11Z" stroke="#C21725" stroke-linecap="round" stroke-linejoin="round"/>
</g>
<defs>
<clipPath id="clip0_1_175">
<rect width="12" height="12" fill="white"/>
</clipPath>
</defs>
</svg>
