<svg width="50" height="50" viewBox="0 0 50 50" fill="none" xmlns="http://www.w3.org/2000/svg">
<path d="M41.6667 27.0834C41.6667 37.5 34.375 42.7084 25.7083 45.7292C25.2545 45.883 24.7615 45.8756 24.3125 45.7084C15.625 42.7084 8.33333 37.5 8.33333 27.0834V12.5C8.33333 11.9475 8.55282 11.4176 8.94352 11.0269C9.33422 10.6362 9.86413 10.4167 10.4167 10.4167C14.5833 10.4167 19.7917 7.91671 23.4167 4.75004C23.858 4.37296 24.4195 4.16577 25 4.16577C25.5805 4.16577 26.142 4.37296 26.5833 4.75004C30.2292 7.93754 35.4167 10.4167 39.5833 10.4167C40.1359 10.4167 40.6658 10.6362 41.0565 11.0269C41.4472 11.4176 41.6667 11.9475 41.6667 12.5V27.0834Z" stroke="white" stroke-width="2" stroke-linecap="round" stroke-linejoin="round"/>
<path d="M18.75 24.9999L22.9167 29.1666L31.25 20.8333" stroke="white" stroke-width="2" stroke-linecap="round" stroke-linejoin="round"/>
</svg>
