<svg width="20" height="20" viewBox="0 0 20 20" fill="none" xmlns="http://www.w3.org/2000/svg">
<g clip-path="url(#clip0_120_1283)">
<path d="M2.57167 14.5908C2.64315 14.2661 2.61587 13.9274 2.49334 13.6183C1.64065 11.8491 1.44022 9.83556 1.92742 7.93298C2.41462 6.0304 3.55813 4.36103 5.15621 3.2194C6.75429 2.07777 8.70423 1.53724 10.662 1.6932C12.6198 1.84915 14.4595 2.69155 15.8567 4.07178C17.2539 5.45201 18.1187 7.28136 18.2986 9.23707C18.4784 11.1928 17.9618 13.1492 16.8398 14.7611C15.7177 16.373 14.0625 17.5368 12.166 18.0472C10.2695 18.5576 8.25366 18.3818 6.47417 17.5508C6.18211 17.4399 5.86477 17.4133 5.55834 17.4741L2.71417 18.3058C2.57697 18.3422 2.43275 18.343 2.29517 18.308C2.1576 18.273 2.03123 18.2035 1.92806 18.106C1.82489 18.0085 1.74834 17.8863 1.70565 17.7509C1.66297 17.6155 1.65558 17.4715 1.68417 17.3324L2.57167 14.5908Z" stroke="white" stroke-width="1.66667" stroke-linecap="round" stroke-linejoin="round"/>
</g>
<defs>
<clipPath id="clip0_120_1283">
<rect width="20" height="20" fill="white"/>
</clipPath>
</defs>
</svg>
