<svg width="11" height="12" viewBox="0 0 11 12" fill="none" xmlns="http://www.w3.org/2000/svg">
<path d="M5.51111 4.00794L8.71689 0.10961C8.76245 0.0435813 8.83905 0 8.92555 0H10.3538C10.4106 0.00132068 10.4674 0.0198094 10.5142 0.0587674C10.6219 0.147248 10.6377 0.307049 10.5486 0.414675L6.47258 5.37083L10.2025 10.6546C10.2831 10.7688 10.2554 10.9266 10.1411 11.0072C10.0969 11.0382 10.0461 11.0534 9.99587 11.0534L8.05465 11.0541C7.96353 11.0541 7.88364 11.0059 7.83874 10.9339L5.09527 7.04672L1.88949 10.9445C1.84393 11.0106 1.76733 11.0541 1.68083 11.0541H0.252606C0.19582 11.0528 0.139034 11.0343 0.0921529 10.9954C-0.0154762 10.9069 -0.0313236 10.7471 0.057818 10.6395L4.1338 5.68399L0.403837 0.39956C0.32328 0.285329 0.351012 0.127512 0.465244 0.0469664C0.509484 0.015933 0.560327 0.000744772 0.610511 0.000744772H2.55173C2.64285 0.000744772 2.72274 0.0489475 2.76764 0.12092L5.51179 4.00877L5.51111 4.00794Z" fill="black"/>
</svg>
