<svg width="15" height="12" viewBox="0 0 15 12" fill="none" xmlns="http://www.w3.org/2000/svg">
<path d="M11.792 0.305305C8.77349 -0.101768 5.66747 -0.101768 2.64813 0.305305C1.40231 0.473408 0.432264 1.39533 0.236303 2.60003C0.0798004 3.56719 0 4.55473 0 5.53314C0 6.51155 0.079027 7.50888 0.240171 8.48208C0.432314 9.65956 1.42246 10.595 2.64823 10.761C4.15748 10.9653 5.69693 11.0678 7.22018 11.0678C8.74344 11.0678 10.2828 10.9653 11.7921 10.761C13.0356 10.5929 14.0032 9.67848 14.2002 8.48208C14.3606 7.50963 14.4404 6.51754 14.4404 5.53314C14.4404 4.54875 14.3613 3.55741 14.2002 2.58421C14.0081 1.40672 13.0178 0.471268 11.792 0.305305ZM9.80248 5.867L5.66906 8.18875C5.60785 8.22342 5.54045 8.24076 5.47072 8.24076C5.40099 8.24076 5.33358 8.22342 5.27238 8.18875C5.14919 8.1209 5.07404 7.99351 5.07404 7.85479V3.21188C5.07404 3.07317 5.14919 2.94578 5.27238 2.87793C5.39557 2.80857 5.54587 2.80857 5.66906 2.87793L9.80248 5.19967C9.92567 5.26752 10.0008 5.39642 10.0008 5.53363C10.0008 5.67082 9.92567 5.79973 9.80248 5.86758V5.867Z" fill="black"/>
</svg>
