<svg width="50" height="35" viewBox="0 0 50 35" fill="none" xmlns="http://www.w3.org/2000/svg">
<path d="M19.7333 24.7407L32.5353 17.3185L19.7333 9.8963V24.7407ZM48.248 5.36874C48.5687 6.53156 48.7907 8.09022 48.9387 10.0695C49.1113 12.0487 49.1853 13.7559 49.1853 15.2403L49.3333 17.3185C49.3333 22.7367 48.9387 26.72 48.248 29.2683C47.6313 31.495 46.2007 32.9299 43.9807 33.5484C42.8213 33.8701 40.7 34.0927 37.444 34.2412C34.2373 34.4144 31.302 34.4886 28.5887 34.4886L24.6667 34.637C14.3313 34.637 7.89333 34.2412 5.35267 33.5484C3.13267 32.9299 1.702 31.495 1.08533 29.2683C0.764667 28.1055 0.542667 26.5468 0.394667 24.5676C0.222 22.5883 0.148 20.8812 0.148 19.3967L0 17.3185C0 11.9003 0.394667 7.91704 1.08533 5.36874C1.702 3.14207 3.13267 1.70711 5.35267 1.08859C6.512 0.766963 8.63333 0.544296 11.8893 0.395851C15.096 0.222666 18.0313 0.148444 20.7447 0.148444L24.6667 0C35.002 0 41.44 0.395852 43.9807 1.08859C46.2007 1.70711 47.6313 3.14207 48.248 5.36874Z" fill="#EB0707"/>
</svg>
